<?xml version="1.0" encoding="UTF-8" standalone="no"?>
<!-- Created with Inkscape (http://www.inkscape.org/) -->

<svg
   xmlns:dc="http://purl.org/dc/elements/1.1/"
   xmlns:cc="http://creativecommons.org/ns#"
   xmlns:rdf="http://www.w3.org/1999/02/22-rdf-syntax-ns#"
   xmlns:svg="http://www.w3.org/2000/svg"
   xmlns="http://www.w3.org/2000/svg"
   xmlns:xlink="http://www.w3.org/1999/xlink"
   xmlns:sodipodi="http://sodipodi.sourceforge.net/DTD/sodipodi-0.dtd"
   xmlns:inkscape="http://www.inkscape.org/namespaces/inkscape"
   width="182.73811mm"
   height="210.98795mm"
   viewBox="0 0 647.49725 747.59508"
   id="svg3682"
   version="1.1"
   inkscape:version="0.92.4 (33fec40, 2019-01-16)"
   sodipodi:docname="harp_logo_dark.svg"
   inkscape:export-filename="/home/andrewts/HarpEPSrewrite/logo/harp_logo_half.png"
   inkscape:export-xdpi="41.653564"
   inkscape:export-ydpi="41.653564">
  <defs
     id="defs3684">
    <linearGradient
       inkscape:collect="always"
       id="linearGradient6080">
      <stop
         style="stop-color:#b3b3b3;stop-opacity:1;"
         offset="0"
         id="stop6082" />
      <stop
         style="stop-color:#b3b3b3;stop-opacity:1"
         offset="1"
         id="stop6084" />
    </linearGradient>
    <linearGradient
       inkscape:collect="always"
       id="linearGradient6072">
      <stop
         style="stop-color:#040410;stop-opacity:1;"
         offset="0"
         id="stop6074" />
      <stop
         style="stop-color:#b3b3b3;stop-opacity:1"
         offset="1"
         id="stop6076" />
    </linearGradient>
    <linearGradient
       inkscape:collect="always"
       xlink:href="#linearGradient6072"
       id="linearGradient6078"
       x1="-33.123123"
       y1="631.71484"
       x2="447.96686"
       y2="631.71484"
       gradientUnits="userSpaceOnUse" />
    <linearGradient
       inkscape:collect="always"
       xlink:href="#linearGradient6080"
       id="linearGradient6086"
       x1="326.87119"
       y1="626.39801"
       x2="221.40114"
       y2="734.10046"
       gradientUnits="userSpaceOnUse"
       gradientTransform="matrix(0.64096128,0,0,0.64096128,299.91425,285.43233)" />
    <filter
       style="color-interpolation-filters:sRGB"
       inkscape:label="Cutout Glow"
       id="filter6147"
       inkscape:menu-tooltip="In and out glow with a possible offset and colorizable flood"
       inkscape:menu="Shadows and Glows">
      <feFlood
         flood-opacity="0.498039"
         flood-color="rgb(0,0,0)"
         result="flood"
         id="feFlood6149" />
      <feComposite
         in="flood"
         in2="SourceGraphic"
         operator="in"
         result="composite1"
         id="feComposite6151" />
      <feGaussianBlur
         in="composite1"
         stdDeviation="3"
         result="blur"
         id="feGaussianBlur6153" />
      <feOffset
         dx="6"
         dy="6"
         result="offset"
         id="feOffset6155" />
      <feComposite
         in="SourceGraphic"
         in2="offset"
         operator="over"
         result="fbSourceGraphic"
         id="feComposite6157" />
      <feColorMatrix
         result="fbSourceGraphicAlpha"
         in="fbSourceGraphic"
         values="0 0 0 -1 0 0 0 0 -1 0 0 0 0 -1 0 0 0 0 1 0"
         id="feColorMatrix6195" />
      <feOffset
         id="feOffset6197"
         dy="3"
         dx="3"
         in="fbSourceGraphic" />
      <feGaussianBlur
         id="feGaussianBlur6199"
         stdDeviation="3"
         result="blur" />
      <feFlood
         id="feFlood6201"
         flood-color="rgb(0,0,0)"
         flood-opacity="1"
         result="flood" />
      <feComposite
         id="feComposite6203"
         in2="fbSourceGraphic"
         in="flood"
         operator="in"
         result="composite" />
      <feBlend
         id="feBlend6205"
         in2="composite"
         in="blur"
         mode="normal" />
    </filter>
    <filter
       style="color-interpolation-filters:sRGB"
       inkscape:label="Drop Shadow"
       id="filter6231">
      <feFlood
         flood-opacity="0.498039"
         flood-color="rgb(0,0,0)"
         result="flood"
         id="feFlood6233" />
      <feComposite
         in="flood"
         in2="SourceGraphic"
         operator="in"
         result="composite1"
         id="feComposite6235" />
      <feGaussianBlur
         in="composite1"
         stdDeviation="3"
         result="blur"
         id="feGaussianBlur6237" />
      <feOffset
         dx="6"
         dy="6"
         result="offset"
         id="feOffset6239" />
      <feComposite
         in="SourceGraphic"
         in2="offset"
         operator="over"
         result="composite2"
         id="feComposite6241" />
    </filter>
    <linearGradient
       inkscape:collect="always"
       xlink:href="#linearGradient6080"
       id="linearGradient4571"
       gradientUnits="userSpaceOnUse"
       gradientTransform="matrix(0.64096128,0,0,0.64096128,299.91425,285.43233)"
       x1="291.3179"
       y1="723.3103"
       x2="221.40114"
       y2="734.10046" />
    <linearGradient
       inkscape:collect="always"
       xlink:href="#linearGradient6080"
       id="linearGradient5459"
       gradientUnits="userSpaceOnUse"
       gradientTransform="matrix(0.64096128,0,0,0.64096128,299.91425,285.43233)"
       x1="291.3179"
       y1="723.3103"
       x2="221.40114"
       y2="734.10046" />
    <linearGradient
       inkscape:collect="always"
       xlink:href="#linearGradient6080"
       id="linearGradient5461"
       gradientUnits="userSpaceOnUse"
       gradientTransform="matrix(0.64096128,0,0,0.64096128,299.91425,285.43233)"
       x1="291.3179"
       y1="723.3103"
       x2="221.40114"
       y2="734.10046" />
    <linearGradient
       inkscape:collect="always"
       xlink:href="#linearGradient6080"
       id="linearGradient5463"
       gradientUnits="userSpaceOnUse"
       gradientTransform="matrix(0.64096128,0,0,0.64096128,299.91425,285.43233)"
       x1="291.3179"
       y1="723.3103"
       x2="221.40114"
       y2="734.10046" />
    <linearGradient
       inkscape:collect="always"
       xlink:href="#linearGradient6080"
       id="linearGradient5465"
       gradientUnits="userSpaceOnUse"
       gradientTransform="matrix(0.64096128,0,0,0.64096128,299.91425,285.43233)"
       x1="291.3179"
       y1="723.3103"
       x2="221.40114"
       y2="734.10046" />
    <linearGradient
       inkscape:collect="always"
       xlink:href="#linearGradient6080"
       id="linearGradient5467"
       gradientUnits="userSpaceOnUse"
       gradientTransform="matrix(0.64096128,0,0,0.64096128,299.91425,285.43233)"
       x1="291.3179"
       y1="723.3103"
       x2="221.40114"
       y2="734.10046" />
  </defs>
  <sodipodi:namedview
     id="base"
     pagecolor="#ffffff"
     bordercolor="#666666"
     borderopacity="0"
     inkscape:pageopacity="0.0"
     inkscape:pageshadow="2"
     inkscape:zoom="1"
     inkscape:cx="351.71425"
     inkscape:cy="334.06525"
     inkscape:document-units="px"
     inkscape:current-layer="layer1"
     showgrid="false"
     inkscape:snap-text-baseline="true"
     inkscape:window-width="1847"
     inkscape:window-height="1173"
     inkscape:window-x="73"
     inkscape:window-y="27"
     inkscape:window-maximized="1"
     inkscape:snap-grids="true"
     inkscape:snap-to-guides="false"
     fit-margin-top="0"
     fit-margin-left="0"
     fit-margin-right="0"
     fit-margin-bottom="0">
    <inkscape:grid
       type="xygrid"
       id="grid6107"
       originx="-91.751358"
       originy="-172.05963" />
  </sodipodi:namedview>
  <metadata
     id="metadata3687">
    <rdf:RDF>
      <cc:Work
         rdf:about="">
        <dc:format>image/svg+xml</dc:format>
        <dc:type
           rdf:resource="http://purl.org/dc/dcmitype/StillImage" />
        <dc:title></dc:title>
      </cc:Work>
    </rdf:RDF>
  </metadata>
  <g
     inkscape:label="Layer 1"
     inkscape:groupmode="layer"
     id="layer1"
     transform="translate(-91.751359,-132.7075)">
    <path
       style="fill:#000055;fill-opacity:1;stroke:#000045;stroke-width:32.04843521;stroke-linejoin:round;stroke-miterlimit:4;stroke-dasharray:none;stroke-opacity:1"
       d="M 421.66264,861.78074 112.15353,687.31483 108.49089,332.03912 414.33736,151.22933 l 309.50911,174.46591 3.66264,355.27571 z"
       id="path3692"
       inkscape:connector-curvature="0"
       transform="rotate(0.60000034,416.74974,267.77468)" />
    <path
       style="fill:#b3b3b3;stroke:none;filter:url(#filter6147)"
       d="m 360.69841,639.56876 c 1.55565,-0.55359 3.54789,-2.39889 4.25585,-3.94189 0.34577,-0.75368 1.54706,-2.94805 2.66957,-4.8765 1.12248,-1.92837 2.23019,-4.62195 2.46154,-5.98562 0.39721,-2.3408 0.12604,-2.80268 -4.84838,-8.2601 -9.04317,-9.92104 -12.88014,-14.38545 -12.59982,-14.65996 0.1487,-0.14561 -0.51387,-0.89495 -1.47238,-1.66532 -0.95844,-0.7703 -1.74064,-1.59367 -1.73817,-1.82967 0.007,-0.76924 -8.37299,-12.19645 -8.94964,-12.20249 -0.30832,-0.003 -0.55683,-0.37149 -0.55215,-0.81835 0.0119,-1.12957 -5.43127,-9.57088 -6.17645,-9.57868 -0.33413,-0.004 -0.60381,-0.36118 -0.59927,-0.79482 0.005,-0.43366 -1.92952,-4.24894 -4.29792,-8.47844 -10.2102,-18.23323 -19.37107,-38.97378 -25.70804,-58.20395 -2.12233,-6.44044 -4.11004,-11.81647 -4.41714,-11.94664 -0.30711,-0.13025 -0.39666,-0.49242 -0.199,-0.80488 0.19768,-0.31245 0.0187,-1.44961 -0.39743,-2.52702 -0.41623,-1.0774 -0.83355,-2.87882 -0.92734,-4.00325 -0.094,-1.12435 -0.47708,-2.15009 -0.85176,-2.27932 -0.37463,-0.12921 -0.51673,-0.83805 -0.31572,-1.57508 0.20101,-0.73703 0.0486,-1.34336 -0.33873,-1.34742 -0.3873,-0.004 -0.53572,-0.6252 -0.32975,-1.38031 0.20593,-0.75513 0.0576,-1.37629 -0.3298,-1.38035 -0.38729,-0.004 -0.53569,-0.6252 -0.32973,-1.38031 0.20593,-0.75516 0.0576,-1.37626 -0.32978,-1.38032 -0.3873,-0.004 -0.53572,-0.62521 -0.32976,-1.38034 0.20594,-0.75513 0.10592,-1.37718 -0.22208,-1.3823 -0.32811,-0.006 -0.64184,-1.11363 -0.69724,-2.46334 -0.0552,-1.3497 -0.42422,-2.85222 -0.81962,-3.33893 -0.39538,-0.48668 -0.55862,-1.04187 -0.36271,-1.23368 0.35958,-0.35216 -0.72455,-6.91142 -1.4595,-8.82999 -0.21842,-0.57026 -0.36774,-1.20423 -0.33179,-1.4088 0.0359,-0.20456 -0.64501,-5.01355 -1.51313,-10.68662 -0.86808,-5.67309 -1.54946,-11.45102 -1.51411,-12.83984 0.0356,-1.38882 -0.24111,-2.71827 -0.61424,-2.95433 -0.37316,-0.23607 -0.52972,-0.80508 -0.3479,-1.26444 0.18174,-0.45937 0.0532,-3.6262 -0.28592,-7.03745 -0.89794,-9.03387 -1.05989,-15.78513 -0.85895,-35.80757 0.20773,-20.69846 0.49254,-26.63589 1.55161,-32.34036 0.42092,-2.26744 0.84137,-4.74141 0.93433,-5.49774 0.0929,-0.75631 0.42381,-1.55834 0.73534,-1.78231 0.31148,-0.22395 0.63647,-0.84016 0.72213,-1.36929 0.0855,-0.52919 0.43179,-1.39433 0.76914,-1.92256 1.05454,-1.6513 1.4048,-4.31918 1.3889,-10.57906 -0.009,-3.60984 -0.34729,-6.46166 -0.83767,-7.06527 -0.45222,-0.55667 -0.61194,-1.00995 -0.35486,-1.00726 0.25706,0.002 -0.0718,-0.93014 -0.73088,-2.07295 -0.65904,-1.14284 -1.42524,-2.08025 -1.70274,-2.08317 -0.27744,-0.003 -1.33525,-0.79155 -2.35065,-1.75253 -1.01539,-0.96101 -1.96201,-1.63381 -2.10363,-1.49512 -0.14152,0.13859 -1.33956,-0.76005 -2.66207,-1.99715 l -2.4046,-2.24928 0.49614,-5.76365 c 0.27286,-3.16999 0.65574,-7.07773 0.85085,-8.68384 0.82062,-6.75451 1.15167,-9.58976 1.3852,-11.86298 0.13609,-1.32383 0.44484,-3.17937 0.68631,-4.12343 0.24149,-0.9441 0.59084,-3.94929 0.77636,-6.6782 0.18554,-2.72896 0.54422,-5.28877 0.79708,-5.6885 0.25287,-0.39972 0.38383,-1.73111 0.29101,-2.95868 -0.0927,-1.22754 0.0766,-2.61984 0.37663,-3.094 0.29993,-0.47419 0.48988,-1.86183 0.42205,-3.08365 -0.0678,-1.22184 0.11473,-2.76498 0.40576,-3.42918 0.29098,-0.66422 0.40294,-2.1346 0.24877,-3.26749 -0.39112,-2.87412 0.531,-2.55917 2.62479,0.89649 4.54875,7.50757 9.48405,14.65376 12.66575,18.33967 5.28636,6.12419 16.90406,17.59667 17.8292,17.60637 0.23982,0.002 1.26619,0.79744 2.28074,1.7665 1.01461,0.96904 2.53983,1.948 3.38938,2.17542 0.84958,0.22743 1.54198,0.66966 1.53869,0.98271 -0.003,0.31304 1.07408,0.97258 2.39419,1.4656 1.32009,0.49305 2.39699,1.19562 2.39316,1.56126 -0.004,0.36564 0.18691,0.47504 0.42364,0.24313 0.23684,-0.23192 0.87861,0.0359 1.42618,0.59498 0.54752,0.55914 1.28215,0.84359 1.63249,0.6321 0.35034,-0.21147 0.63335,-0.0382 0.62893,0.38511 -0.004,0.42331 0.30369,0.58141 0.68476,0.35138 0.38102,-0.22999 0.68971,-0.12381 0.68594,0.23617 -0.004,0.35988 0.84249,0.9039 1.88056,1.20894 2.43715,0.71616 2.17669,0.6162 5.06012,1.94174 2.0062,0.92224 12.60206,4.27173 12.60507,3.98458 4.5e-4,-0.0422 1.30614,0.28948 2.90155,0.73707 1.59542,0.44756 4.22287,1.004 5.83879,1.2365 1.61593,0.23248 4.02032,0.6138 5.34316,0.84737 3.25864,0.57535 42.06532,0.98109 46.80863,0.4896 2.08478,-0.21611 5.74493,-0.54907 8.13364,-0.73992 2.38868,-0.19081 4.87148,-0.61141 5.51727,-0.93467 0.64581,-0.32322 1.57013,-0.44126 2.05404,-0.26233 0.48393,0.1789 1.41406,0.10685 2.06701,-0.15986 1.23324,-0.5041 1.70805,-0.58381 7.34361,-1.23242 1.86948,-0.21516 3.76168,-0.68584 4.20494,-1.04591 0.44326,-0.36013 0.99438,-0.46227 1.22475,-0.22705 0.23035,0.23522 0.97677,0.19116 1.65875,-0.0979 0.68198,-0.28908 1.51783,-0.45807 1.85746,-0.37557 0.33957,0.0824 1.11552,-0.0559 1.72428,-0.3074 0.60879,-0.25157 2.0374,-0.5656 3.1747,-0.69786 1.13731,-0.13238 3.15587,-0.59862 4.48569,-1.0363 1.32984,-0.43767 2.68204,-0.71865 3.00488,-0.62437 0.32284,0.0944 0.97343,-0.14254 1.44572,-0.5262 0.47232,-0.3837 1.04005,-0.51252 1.26161,-0.28622 0.22156,0.22628 0.80015,0.17165 1.28571,-0.12162 0.48551,-0.2931 1.51611,-0.59415 2.29022,-0.66898 1.91625,-0.18528 10.20623,-2.26252 11.04146,-2.76672 0.37058,-0.22371 1.77053,-0.50612 3.1109,-0.62761 1.34044,-0.12142 2.53217,-0.48169 2.64834,-0.80046 0.1162,-0.31876 0.8142,-0.41513 1.55121,-0.21411 0.7679,0.20941 1.34363,0.0197 1.34849,-0.44383 0.005,-0.44508 0.3011,-0.62417 0.65868,-0.39797 0.71404,0.45169 13.26479,-1.52619 13.82555,-2.17876 0.19173,-0.22308 1.43323,-0.45253 2.75908,-0.50992 1.32583,-0.0573 3.96087,-0.22388 5.85559,-0.37002 6.52201,-0.50291 21.69268,-0.58799 21.85942,-0.1226 0.092,0.25642 2.17896,0.63137 4.63802,0.83322 2.45905,0.2019 4.93383,0.54557 5.49953,0.76373 0.56565,0.21815 3.49807,1.23588 6.51647,2.26164 3.01837,1.02573 7.33629,2.86519 9.5953,4.08768 5.57234,3.01549 15.12473,12.74449 18.22304,18.55993 2.605,4.88951 5.87768,13.79681 5.85527,15.93643 -0.007,0.73463 0.24213,1.33838 0.55514,1.34166 0.31306,0.003 0.42303,0.9338 0.24447,2.06787 -0.17862,1.13404 -0.057,2.06403 0.26968,2.0666 0.32693,0.004 0.48166,2.25023 0.34394,4.99477 -0.19107,3.80503 -0.0652,4.7468 0.53121,3.96563 1.20927,-1.58481 0.14604,7.15679 -1.17289,9.64312 -0.59423,1.12022 -0.84019,2.04401 -0.54652,2.05286 0.29353,0.009 0.19485,0.2402 -0.21946,0.51405 -1.11345,0.73599 -4.71636,6.99479 -4.03779,7.0142 0.31988,0.009 0.24717,0.24071 -0.16159,0.51464 -1.19103,0.79826 -6.62993,10.85209 -6.14089,11.3515 0.24445,0.24961 0.0647,0.44989 -0.39926,0.44503 -0.46405,-0.005 -0.6555,0.30293 -0.42549,0.68398 0.23005,0.38105 0.11959,0.6897 -0.24544,0.68589 -0.76284,-0.007 -22.10964,41.31184 -22.12551,42.82713 -0.006,0.55061 -0.28691,0.99818 -0.62474,0.99465 -0.33785,-0.004 -0.42607,0.30534 -0.19601,0.68639 0.23004,0.38102 0.13208,0.68981 -0.21778,0.68614 -0.68093,-0.007 -5.51524,10.26454 -5.23938,11.13226 0.0907,0.28493 -0.10921,0.51519 -0.44373,0.51168 -0.57647,-0.006 -3.83747,7.03272 -3.64867,7.87553 0.0489,0.2187 -0.35196,0.8295 -0.891,1.35738 -0.53905,0.52786 -1.41149,2.36645 -1.93874,4.08577 -0.52731,1.7193 -1.16667,3.12382 -1.42084,3.12116 -0.25414,-0.002 -0.88829,1.38475 -1.40915,3.08321 -0.52086,1.69841 -1.16518,3.08574 -1.43176,3.08295 -0.26658,-0.003 -0.85411,1.15279 -1.3056,2.56796 -0.4515,1.41519 -1.60658,4.03638 -2.56689,5.82486 -0.9603,1.78849 -1.53383,3.25402 -1.27454,3.25674 0.25925,0.003 0.13568,0.40096 -0.27469,0.88501 -1.23456,1.45624 -5.67885,11.9777 -5.24608,12.41967 0.22108,0.22575 0.0651,0.40694 -0.34643,0.40264 -0.41159,-0.004 -0.97418,0.99664 -1.25016,2.22436 -0.276,1.22766 -0.77677,2.56773 -1.11293,2.97794 -0.83198,1.0153 -4.85838,10.55617 -4.45667,10.56038 0.17652,10e-4 -0.1944,0.77244 -0.82458,1.71245 -0.63008,0.94002 -0.94797,1.71117 -0.70642,1.71371 0.24161,0.002 -0.0764,0.77367 -0.70635,1.71368 -0.63006,0.94 -0.94796,1.71116 -0.70638,1.71369 0.24159,0.002 -0.0763,0.7737 -0.70638,1.71369 -0.63007,0.94 -0.94795,1.71119 -0.70639,1.71373 0.24156,0.002 -0.0765,0.77367 -0.70638,1.71368 -0.6301,0.93999 -0.94796,1.71118 -0.7064,1.7137 0.24158,0.002 -0.0246,0.69678 -0.59181,1.54278 -0.56706,0.846 -1.05785,1.76627 -1.09062,2.04503 -0.0328,0.27875 -0.69404,1.94523 -1.46949,3.70318 -0.77544,1.75801 -1.51564,3.69048 -1.6449,4.29438 -0.12929,0.60391 -0.79283,2.32794 -1.47471,3.83116 -2.07288,4.56988 -5.31461,13.37655 -4.9254,13.38063 0.20128,0.002 -0.12345,0.6872 -0.72169,1.52248 -0.59818,0.83528 -1.09481,2.20586 -1.10361,3.04578 -0.008,0.83992 -0.30391,1.70096 -0.65581,1.91338 -0.58317,0.352 -2.8256,6.13507 -3.14822,8.11888 -0.0742,0.45588 -0.38382,1.21845 -0.68813,1.69452 -0.89739,1.40371 -4.65934,12.50439 -4.23915,12.50878 0.21167,0.002 -0.005,0.46466 -0.48294,1.02764 -0.47724,0.56295 -0.637,1.02598 -0.35497,1.02894 0.28201,0.003 0.12233,0.46595 -0.35501,1.0289 -0.47727,0.56298 -0.637,1.026 -0.35501,1.02895 0.28202,0.003 0.12233,0.466 -0.35501,1.02893 -0.47722,0.56298 -0.63697,1.02601 -0.35498,1.02896 0.28205,0.003 0.16333,0.41747 -0.26362,0.92115 -0.42696,0.50363 -0.57462,1.1217 -0.32812,1.37337 0.24649,0.25175 0.0537,0.45359 -0.42856,0.44855 -0.48221,-0.005 -0.71737,0.41943 -0.5226,0.94326 0.19472,0.52388 0.004,1.29638 -0.42624,1.71667 -0.42918,0.42026 -0.52559,0.76682 -0.21419,0.77009 0.31135,0.003 0.25575,0.38991 -0.12356,0.85925 -0.75136,0.92953 -4.27247,10.98127 -4.62534,13.20398 -0.11999,0.75603 -0.41219,1.68235 -0.64931,2.05853 -0.37895,0.60117 -2.46547,6.9815 -2.58023,7.89002 -0.0238,0.18915 -0.38636,1.21813 -0.80552,2.28677 -0.41913,1.06865 -0.60576,2.20196 -0.4147,2.51849 0.19109,0.31654 0.0398,0.67618 -0.33583,0.79926 -0.37576,0.12309 -0.80356,1.23053 -0.95068,2.46108 -0.14703,1.23053 -0.47492,2.44045 -0.72846,2.68876 -1.34297,1.31513 1.28991,10.56681 3.01231,10.58485 0.30313,0.003 0.54692,0.41249 0.54172,0.90958 -0.0108,1.00597 3.16933,4.25164 4.7681,4.86673 0.56567,0.21764 -4.23687,0.28339 -10.67231,0.14624 -8.75869,-0.18679 -11.65738,-0.45943 -11.52797,-1.08431 0.0952,-0.45919 -0.16603,-1.70115 -0.58025,-2.75987 -0.41425,-1.05869 -0.84202,-2.66631 -0.95062,-3.57234 -0.44776,-3.73638 1.74036,-3.49979 -36.02446,-3.89529 l -35.12809,-0.36786 -0.12093,1.54776 c -0.17034,2.17686 -0.29438,2.6734 -1.2073,4.83031 -0.44429,1.04977 -0.77703,2.13056 -0.7394,2.40177 0.29402,2.12006 -0.22408,2.21069 -11.64216,2.03727 -6.34125,-0.096 -11.06308,-0.34107 -10.49299,-0.54394 z m 34.70456,-39.36279 c 1.62589,-3.93539 1.62658,-5.22617 0.006,-11.07396 -0.10517,-0.37979 -0.42766,-1.77722 -0.71642,-3.1055 -0.28878,-1.32826 -0.70877,-2.72674 -0.93325,-3.10774 -0.2245,-0.38094 -0.4917,-1.31319 -0.59377,-2.07152 -0.10201,-0.75835 -0.37857,-1.84557 -0.61439,-2.41594 -0.23583,-0.57048 -0.53425,-1.65787 -0.66312,-2.41652 -0.12887,-0.75867 -0.42731,-1.84604 -0.66315,-2.41647 -0.23584,-0.57043 -0.53426,-1.65786 -0.66312,-2.4165 -0.12887,-0.75864 -0.42732,-1.84603 -0.66314,-2.41646 -0.23582,-0.5704 -0.53423,-1.65788 -0.66315,-2.41648 -0.12887,-0.75861 -0.42731,-1.84603 -0.66311,-2.41646 -0.23586,-0.57043 -0.53426,-1.65788 -0.66315,-2.41651 -0.12886,-0.75862 -0.42731,-1.84604 -0.66312,-2.41645 -0.23583,-0.57044 -0.53325,-1.60681 -0.66094,-2.30305 -0.40956,-2.23296 -3.68654,-13.89617 -4.10596,-14.61364 -0.22271,-0.38098 -0.48844,-1.31316 -0.59051,-2.07148 -0.10201,-0.75836 -0.37856,-1.84554 -0.61439,-2.41599 -0.23583,-0.57042 -0.53424,-1.65784 -0.66312,-2.41648 -0.12888,-0.7586 -0.42732,-1.84603 -0.66315,-2.41647 -0.23582,-0.57042 -0.53423,-1.65785 -0.66311,-2.41646 -0.12888,-0.75866 -0.4273,-1.84606 -0.66314,-2.4165 -0.23584,-0.57043 -0.53424,-1.65781 -0.66311,-2.41648 -0.12886,-0.75861 -0.42735,-1.84603 -0.66314,-2.41645 -0.23583,-0.57043 -0.53575,-1.65789 -0.66646,-2.4165 -0.54567,-3.16688 -5.01865,-18.69927 -5.58612,-19.39778 -0.33896,-0.41723 -0.45372,-0.91777 -0.25505,-1.1123 0.19868,-0.19457 0.002,-1.2524 -0.43674,-2.35078 -0.43889,-1.09838 -0.74921,-2.21813 -0.6896,-2.48836 0.0597,-0.2702 -0.23882,-1.35763 -0.66314,-2.41648 -0.42433,-1.05883 -0.72273,-2.14626 -0.66315,-2.41647 0.0597,-0.27023 -0.23878,-1.35764 -0.6631,-2.41648 -0.42432,-1.05885 -0.72274,-2.14625 -0.66315,-2.41648 0.0597,-0.27021 -0.23613,-1.35761 -0.65717,-2.41641 -0.42105,-1.05881 -0.87364,-2.54583 -1.00571,-3.3045 -0.38348,-2.20282 -4.28498,-16.39756 -5.0288,-18.29628 -0.37237,-0.9505 -0.78495,-2.64299 -0.91687,-3.76108 -0.13182,-1.11808 -0.46621,-2.20588 -0.74291,-2.41731 -0.27671,-0.21144 -0.59244,-1.31476 -0.70166,-2.4518 -0.10917,-1.13707 -0.48753,-2.17432 -0.84067,-2.30502 -0.35316,-0.13074 -0.48043,-0.49331 -0.28276,-0.80576 0.19767,-0.31246 0.01,-1.44971 -0.41871,-2.52723 -0.42791,-1.07753 -0.88045,-2.57979 -1.00565,-3.33839 -0.42454,-2.57232 -5.09862,-19.32753 -5.48949,-19.67798 -0.21364,-0.19161 -0.47947,-1.27471 -0.5907,-2.40702 -0.11132,-1.13231 -0.40963,-2.21972 -0.66312,-2.41648 -0.25351,-0.19678 -0.55192,-1.28416 -0.66314,-2.41649 -0.11113,-1.13229 -0.4096,-2.21972 -0.66313,-2.41646 -0.2535,-0.19677 -0.55024,-1.28808 -0.65947,-2.42515 -0.10917,-1.13706 -0.48752,-2.17433 -0.84069,-2.30503 -0.35317,-0.13072 -0.48041,-0.49328 -0.28275,-0.80572 0.19765,-0.31247 0.01,-1.44973 -0.41871,-2.52723 -0.42793,-1.07752 -0.88614,-2.57985 -1.0182,-3.33851 -0.38346,-2.20284 -4.28497,-16.39754 -5.0288,-18.29628 -0.3724,-0.95051 -0.78598,-2.65873 -0.91913,-3.79604 -0.13315,-1.13731 -0.54734,-2.17495 -0.92047,-2.30585 -0.37313,-0.13094 -0.51666,-0.49367 -0.31902,-0.80615 0.19768,-0.31243 0.008,-1.44973 -0.42385,-2.52726 -0.43078,-1.07757 -0.70805,-2.3785 -0.61614,-2.891 0.092,-0.51251 -0.21548,-0.80872 -0.6831,-0.65828 -0.8287,0.2666 -1.28811,1.48848 -1.63775,4.35607 -0.0948,0.77541 -0.38595,1.74815 -0.64751,2.16166 -0.2616,0.41348 -0.46531,1.48 -0.45279,2.37003 0.0126,0.89 -0.18032,2.85523 -0.42862,4.36722 -0.42296,2.57542 -0.62836,4.09399 -1.48791,10.99944 -2.16561,17.39812 -2.92645,36.23798 -2.15373,53.33143 0.55831,12.35039 1.2799,20.62242 2.34423,26.87359 0.3552,2.08626 0.8042,5.03406 0.99783,6.55064 0.1936,1.51657 0.78645,4.62078 1.31744,6.89818 0.53099,2.27737 1.06717,4.7614 1.19152,5.51999 0.7737,4.71974 1.26679,6.61398 1.81144,6.95851 0.33964,0.21486 0.4363,0.67714 0.21479,1.02731 -0.22152,0.35016 -0.16521,1.02637 0.12529,1.50274 0.2904,0.47634 0.61151,1.48655 0.71358,2.24488 0.102,0.75835 0.37852,1.84553 0.61437,2.41599 0.23582,0.57041 0.53602,1.65784 0.66711,2.41649 0.33332,1.9292 2.89084,9.87466 4.11343,12.7792 0.56027,1.33112 1.0881,2.8137 1.17293,3.29471 0.23388,1.32597 4.26981,11.19626 5.8612,14.33413 0.77221,1.52263 1.33896,3.00012 1.25944,3.28327 -0.0795,0.28315 0.12659,0.51766 0.4578,0.52113 0.33123,0.004 0.77136,0.90012 0.97798,1.99255 0.20662,1.09246 0.83591,2.45625 1.39841,3.03066 0.56251,0.57441 0.82898,1.23415 0.59215,1.46609 -0.23683,0.23187 -0.0509,0.42564 0.41313,0.4305 0.46406,0.005 0.64902,0.31658 0.41108,0.69274 -0.23797,0.37612 -0.10471,0.68735 0.29633,0.69155 0.40097,0.004 0.72402,0.48315 0.71794,1.06436 -0.0115,1.09066 1.87728,4.49141 2.9138,5.24658 0.3226,0.23502 0.55466,0.70219 0.51573,1.03804 -0.0391,0.33592 0.32213,1.07956 0.80244,1.65255 0.4803,0.57299 0.93686,1.35225 1.01455,1.73171 0.0777,0.37942 0.60269,1.24043 1.16672,1.9133 0.564,0.67287 1.02281,1.47824 1.01956,1.78973 -0.006,0.55988 5.19866,8.44515 6.0188,9.11904 0.23341,0.19183 0.85024,1.19686 1.37075,2.23362 0.52047,1.03678 1.97065,3.02712 3.22266,4.423 1.25195,1.39597 2.2739,2.76695 2.27097,3.04674 -0.0118,1.12517 15.60124,16.82654 16.46227,16.55542 0.50741,-0.1599 1.6574,-2.06916 2.55549,-4.24294 z m 6.83905,-16.16572 c 0.59924,-1.12966 0.87867,-2.0561 0.62098,-2.0588 -0.25774,-0.002 0.067,-0.58423 0.72125,-1.29225 0.65442,-0.70807 1.24598,-1.94109 1.31458,-2.74002 0.0687,-0.79894 0.33261,-1.45041 0.58664,-1.44776 0.43011,0.005 3.42573,-6.60115 4.0395,-8.90741 0.61883,-2.32547 0.63229,-5.25892 0.0317,-6.88406 -0.35124,-0.95027 -0.7659,-2.50361 -0.92139,-3.45181 -0.15546,-0.94824 -0.47032,-2.19077 -0.69961,-2.76108 -0.22931,-0.57039 -0.52237,-1.65773 -0.65124,-2.41637 -0.12886,-0.75864 -0.42732,-1.84605 -0.66315,-2.41649 -0.23583,-0.5704 -0.53327,-1.60678 -0.66092,-2.30301 -0.56442,-3.07732 -3.75457,-13.99266 -4.29012,-14.67892 -0.32533,-0.41686 -0.42898,-0.91712 -0.23029,-1.1117 0.19866,-0.19453 0.002,-1.25237 -0.43675,-2.35075 -0.4389,-1.09837 -0.74921,-2.21813 -0.6896,-2.48833 0.0597,-0.27026 -0.23881,-1.35766 -0.66313,-2.41652 -0.42435,-1.05884 -0.72273,-2.14622 -0.66314,-2.41647 0.0597,-0.27019 -0.23612,-1.3576 -0.65719,-2.41641 -0.42105,-1.05882 -0.87021,-2.5458 -0.99812,-3.3044 -0.12792,-0.75862 -0.4255,-1.84603 -0.66134,-2.41649 -0.23579,-0.57042 -0.53836,-1.65787 -0.67235,-2.41656 -0.39701,-2.24808 -2.96591,-11.59446 -3.70046,-13.46327 -0.37359,-0.95054 -0.7882,-2.65876 -0.92136,-3.79608 -0.13314,-1.13731 -0.54735,-2.17496 -0.92045,-2.30585 -0.37313,-0.13094 -0.51669,-0.49371 -0.31903,-0.80615 0.19768,-0.31241 0.008,-1.44972 -0.42464,-2.52725 -0.43117,-1.07758 -0.73524,-2.1803 -0.67565,-2.45054 0.0597,-0.27019 -0.23881,-1.35764 -0.66312,-2.41646 -0.42434,-1.05885 -0.72274,-2.14625 -0.66316,-2.41649 0.0597,-0.27019 -0.23611,-1.35761 -0.65716,-2.41641 -0.42108,-1.05882 -0.87292,-2.54579 -1.00418,-3.3045 -0.46644,-2.69664 -5.10054,-19.33546 -5.48046,-19.67786 -0.21256,-0.19161 -0.47744,-1.27468 -0.58868,-2.40698 -0.11114,-1.13234 -0.40962,-2.21973 -0.66313,-2.4165 -0.25351,-0.19676 -0.55025,-1.28809 -0.65948,-2.42515 -0.10918,-1.13704 -0.48754,-2.17431 -0.8407,-2.30503 -0.35315,-0.13072 -0.48041,-0.49327 -0.28276,-0.80573 0.1977,-0.31245 0.01,-1.44968 -0.4187,-2.52724 -0.42792,-1.0775 -0.88568,-2.57984 -1.01726,-3.3385 -0.37948,-2.1885 -5.6101,-21.21896 -6.35719,-23.12927 -0.37173,-0.95047 -0.7848,-2.65868 -0.91795,-3.79602 -0.13315,-1.13731 -0.54734,-2.17494 -0.92046,-2.30587 -0.37314,-0.13092 -0.51668,-0.49363 -0.31901,-0.8061 0.19766,-0.31246 0.007,-1.44974 -0.42462,-2.52729 -0.43121,-1.07755 -0.73529,-2.18028 -0.67567,-2.45049 0.0598,-0.27023 -0.23613,-1.35761 -0.65717,-2.41643 -0.42108,-1.05878 -0.87172,-2.54579 -1.00143,-3.30445 -0.53749,-3.14299 -5.01532,-18.69735 -5.58433,-19.39771 -0.33894,-0.41725 -0.45372,-0.91779 -0.25504,-1.11233 0.19866,-0.19457 0.002,-1.25242 -0.43674,-2.35079 -0.43888,-1.09835 -0.74921,-2.21812 -0.68962,-2.48835 0.0598,-0.27022 -0.23883,-1.35764 -0.66311,-2.41647 -0.42433,-1.05882 -0.72274,-2.14624 -0.66315,-2.41648 0.0597,-0.2702 -0.23881,-1.35762 -0.66314,-2.41645 -0.42431,-1.05887 -0.72274,-2.14628 -0.66311,-2.41651 0.0596,-0.27019 -0.23614,-1.35759 -0.65719,-2.4164 -0.42105,-1.0588 -0.87235,-2.51697 -1.00292,-3.24035 -0.42935,-2.37879 -2.21544,-8.33389 -2.72376,-9.08146 -0.71952,-1.05806 -4.17064,-2.3412 -7.4317,-2.76312 -2.51032,-0.32477 -2.91006,-0.17303 -3.63754,1.38014 -0.44946,0.95977 -0.65616,2.01186 -0.45925,2.33802 0.1969,0.3262 0.0198,0.79714 -0.39336,1.04661 -0.41325,0.24948 -0.5933,0.87864 -0.40018,1.39821 0.19318,0.51955 0.094,1.0999 -0.22034,1.28966 -0.82013,0.49508 -1.62361,5.80182 -1.02665,6.78059 0.27644,0.45323 0.58761,1.44453 0.69149,2.20291 0.36484,2.66274 4.92787,18.647 5.53737,19.39727 0.33897,0.4172 0.45372,0.91774 0.25503,1.11232 -0.19864,0.19451 -0.002,1.25238 0.43676,2.35076 0.43888,1.09836 0.74921,2.21812 0.68961,2.48834 -0.0596,0.2702 0.23882,1.35763 0.66314,2.41646 0.42431,1.05885 0.72271,2.14627 0.6631,2.4165 -0.0597,0.27022 0.23616,1.3576 0.65723,2.41641 0.42105,1.05881 0.87168,2.5458 1.0014,3.30445 0.53746,3.143 5.01529,18.69737 5.58432,19.39773 0.33894,0.41723 0.45373,0.91778 0.25506,1.11231 -0.1987,0.19455 -0.002,1.25239 0.43674,2.35078 0.43887,1.09839 0.74919,2.21813 0.68959,2.48836 -0.0597,0.27022 0.23883,1.35763 0.66313,2.41648 0.42431,1.05884 0.72274,2.14624 0.66314,2.41647 -0.0597,0.27023 0.23883,1.35763 0.66311,2.41646 0.42434,1.05887 0.72276,2.14627 0.66315,2.41651 -0.0597,0.27022 0.23261,1.35756 0.64936,2.4163 0.41671,1.05877 0.81586,2.39034 0.88692,2.95905 0.19082,1.52643 3.03946,11.80539 3.82693,13.80884 0.37357,0.9505 0.7882,2.65875 0.92132,3.79608 0.13316,1.1373 0.54738,2.17491 0.92049,2.30583 0.37309,0.13093 0.51666,0.49369 0.31901,0.80614 -0.19764,0.31244 -0.008,1.44973 0.42464,2.5273 0.43121,1.07754 0.73526,2.18027 0.67562,2.4505 -0.0597,0.27024 0.23885,1.35764 0.66315,2.41646 0.42434,1.05886 0.72278,2.14624 0.66313,2.41649 -0.0597,0.2702 0.23614,1.35761 0.6572,2.41641 0.42104,1.05879 0.87169,2.54581 1.00142,3.30444 0.53745,3.14303 5.01532,18.69737 5.58432,19.39774 0.33895,0.41725 0.45372,0.91777 0.25506,1.11233 -0.19869,0.19454 -0.002,1.25242 0.43674,2.35078 0.43889,1.09835 0.74918,2.21812 0.68958,2.48835 -0.0597,0.27019 0.23881,1.35764 0.66313,2.41647 0.42434,1.05882 0.72275,2.14626 0.66315,2.41646 -0.0597,0.27023 0.23884,1.35763 0.66312,2.4165 0.42432,1.05883 0.72274,2.14626 0.66315,2.4165 -0.0597,0.27018 0.23613,1.35758 0.65717,2.41639 0.42107,1.05882 0.86925,2.49471 0.99593,3.19097 0.55508,3.05016 3.7513,13.99072 4.28833,14.67888 0.3253,0.41687 0.42896,0.91714 0.23026,1.11169 -0.19867,0.19452 -0.002,1.25239 0.43677,2.35077 0.43887,1.09837 0.7492,2.21813 0.6896,2.48836 -0.0597,0.2702 0.23611,1.35757 0.6572,2.41641 0.42103,1.05881 0.87018,2.54579 0.99809,3.30439 0.1279,0.75863 0.4255,1.84605 0.66134,2.41648 0.2358,0.57043 0.53423,1.65782 0.66311,2.41647 0.12886,0.75861 0.42842,1.84609 0.66556,2.41649 0.23717,0.57047 0.55036,1.80522 0.69599,2.74391 0.14559,0.93868 0.58842,2.10507 0.98398,2.59194 0.39553,0.48689 0.52217,0.88318 0.28145,0.88066 -0.24073,-0.002 0.004,1.08434 0.54371,2.41521 0.53977,1.33091 0.80443,2.41796 0.58809,2.41569 -0.21633,-0.002 -0.0131,0.46457 0.45277,1.03741 0.4654,0.57283 0.68411,1.03983 0.48603,1.03775 -0.19807,-10e-4 0.30975,2.09437 1.12847,4.65881 0.81876,2.56436 2.35709,7.84703 3.41853,11.73924 1.06146,3.89215 2.15632,7.07905 2.43301,7.08196 0.27665,0.003 0.99335,-0.91901 1.5926,-2.04866 v 0 z m 17.89062,-36.40928 c 4.16672,-7.93373 4.83718,-9.68206 4.58048,-11.94526 -0.16529,-1.45821 -0.52012,-2.81985 -0.78831,-3.02592 -0.26821,-0.20605 -0.57866,-1.3011 -0.68989,-2.43339 -0.11111,-1.1323 -0.40962,-2.21973 -0.66312,-2.41649 -0.2535,-0.19675 -0.55026,-1.28807 -0.65947,-2.42515 -0.10917,-1.13703 -0.48754,-2.17428 -0.84072,-2.30501 -0.35317,-0.13072 -0.4804,-0.49329 -0.28276,-0.80576 0.1977,-0.31243 0.008,-1.4497 -0.42461,-2.52727 -0.43122,-1.07754 -0.73527,-2.18029 -0.67566,-2.4505 0.0597,-0.27023 -0.23613,-1.35758 -0.65719,-2.4164 -0.42105,-1.05882 -0.87359,-2.54583 -1.00569,-3.30449 -0.38349,-2.20282 -4.28496,-16.39756 -5.0288,-18.2963 -0.37239,-0.95048 -0.78496,-2.643 -0.91685,-3.76106 -0.13201,-1.11811 -0.46622,-2.2059 -0.74293,-2.41729 -0.27666,-0.21147 -0.59245,-1.31476 -0.70166,-2.45183 -0.10916,-1.13707 -0.4875,-2.17436 -0.84068,-2.30506 -0.35319,-0.13071 -0.48042,-0.49322 -0.28278,-0.80571 0.1977,-0.31243 0.008,-1.44971 -0.4246,-2.52731 -0.43124,-1.07755 -0.73527,-2.18025 -0.67567,-2.45051 0.0597,-0.27018 -0.23615,-1.35758 -0.65718,-2.41638 -0.42106,-1.05883 -0.87362,-2.54584 -1.00569,-3.30452 -0.3835,-2.20282 -4.28498,-16.39753 -5.02883,-18.29627 -0.37235,-0.95051 -0.78495,-2.64299 -0.91685,-3.76109 -0.13201,-1.11809 -0.46622,-2.20589 -0.74292,-2.4173 -0.27667,-0.21144 -0.59244,-1.31473 -0.70162,-2.45181 -0.10917,-1.13707 -0.48754,-2.17433 -0.84074,-2.30506 -0.35314,-0.1307 -0.4804,-0.49325 -0.28276,-0.80572 0.1977,-0.31244 0.01,-1.4497 -0.41864,-2.52722 -0.42796,-1.07753 -0.88614,-2.57985 -1.01822,-3.3385 -0.3835,-2.20285 -4.28499,-16.39758 -5.02881,-18.29631 -0.37237,-0.95048 -0.78599,-2.65871 -0.91914,-3.79603 -0.13314,-1.13731 -0.54734,-2.17494 -0.92047,-2.30586 -0.37312,-0.13094 -0.51668,-0.49367 -0.31901,-0.80611 0.19768,-0.31247 0.008,-1.44975 -0.42462,-2.52729 -0.43119,-1.07755 -0.73524,-2.1803 -0.67567,-2.4505 0.0597,-0.27024 -0.23881,-1.35764 -0.66313,-2.41649 -0.42432,-1.05883 -0.72275,-2.14625 -0.66314,-2.41649 0.0597,-0.27019 -0.23613,-1.35759 -0.6572,-2.41637 -0.42102,-1.05884 -0.87166,-2.54585 -1.00142,-3.3045 -0.53744,-3.14297 -5.0153,-18.69734 -5.58431,-19.39773 -0.33892,-0.41723 -0.45371,-0.91774 -0.25506,-1.11233 0.19869,-0.19454 0.002,-1.25237 -0.43671,-2.35072 -0.4389,-1.09839 -0.74921,-2.21815 -0.6896,-2.48838 0.0597,-0.27021 -0.23885,-1.35762 -0.66316,-2.41645 -0.42428,-1.05887 -0.7227,-2.14628 -0.6631,-2.41651 0.0597,-0.27019 -0.23883,-1.35763 -0.66314,-2.41647 -0.42433,-1.05884 -0.72275,-2.14626 -0.66314,-2.41649 0.0597,-0.27021 -0.23724,-1.35759 -0.65961,-2.41644 -0.42237,-1.05882 -0.88653,-2.69504 -1.0315,-3.63609 -0.14499,-0.94101 -0.6183,-1.93539 -1.05194,-2.20971 -1.12973,-0.71467 -9.1849,-1.58321 -10.01816,-1.08021 -0.38495,0.23237 -0.89115,0.10562 -1.12491,-0.28165 -0.52559,-0.87067 -3.77955,-0.93848 -5.12485,-0.10643 -0.82448,0.50972 -0.84258,0.80245 -0.10562,1.70946 0.48901,0.60193 0.70393,1.09252 0.47769,1.09016 -0.22635,-0.002 -0.0899,0.85099 0.30337,1.89635 0.39315,1.0454 0.84389,2.67654 1.00167,3.6248 0.27922,1.67808 1.94547,7.5827 2.72788,9.6667 0.21408,0.57021 0.34131,1.25784 0.28276,1.5281 -0.0587,0.27021 0.24069,1.35764 0.66501,2.41647 0.42431,1.05884 0.72272,2.14626 0.66311,2.41648 -0.0597,0.27023 0.23883,1.35763 0.66315,2.41647 0.42431,1.05885 0.72273,2.14627 0.66316,2.41648 -0.0597,0.27024 0.23878,1.35764 0.66311,2.41649 0.42432,1.05883 0.72274,2.14627 0.66312,2.41646 -0.0597,0.27023 0.23883,1.35767 0.66314,2.4165 0.42432,1.05884 0.72274,2.14623 0.66312,2.41647 -0.0597,0.27021 0.23615,1.3576 0.65722,2.41641 0.42102,1.05882 0.87172,2.54581 1.00151,3.30445 0.51836,3.02981 3.6844,13.85417 4.26017,14.56517 0.33772,0.41701 0.4515,0.91739 0.25282,1.11192 -0.19865,0.19458 -0.002,1.25242 0.43676,2.35078 0.43886,1.09839 0.74918,2.21813 0.68956,2.48835 -0.0597,0.27021 0.23884,1.35763 0.66319,2.41649 0.42428,1.05884 0.7227,2.14627 0.6631,2.41648 -0.0597,0.27022 0.23882,1.35763 0.66312,2.41645 0.42433,1.05885 0.72274,2.14626 0.66316,2.4165 -0.0597,0.2702 0.23614,1.35761 0.65715,2.41642 0.42107,1.0588 0.87171,2.54578 1.00144,3.30447 0.53749,3.14298 5.01531,18.69734 5.58432,19.39772 0.33894,0.41721 0.45372,0.91775 0.25506,1.11229 -0.19866,0.19457 -0.002,1.25243 0.43673,2.3508 0.43888,1.09836 0.74924,2.21813 0.6896,2.48833 -0.0597,0.27023 0.23884,1.35765 0.66314,2.41649 0.42432,1.05884 0.72273,2.14628 0.66313,2.41646 -0.0597,0.27025 0.23616,1.35763 0.65719,2.41643 0.42104,1.0588 0.87365,2.54585 1.00568,3.30449 0.38348,2.20283 4.28499,16.39758 5.02883,18.29629 0.37237,0.95051 0.78496,2.64301 0.91687,3.76108 0.132,1.11811 0.4662,2.20587 0.7429,2.41728 0.27669,0.21146 0.59243,1.31478 0.70163,2.45184 0.10917,1.1371 0.48755,2.17434 0.84071,2.30504 0.35318,0.13073 0.48041,0.49329 0.28276,0.80572 -0.19765,0.31245 -0.008,1.44973 0.42461,2.52729 0.43124,1.07756 0.73526,2.18028 0.67569,2.45051 -0.0597,0.27021 0.23612,1.35762 0.65716,2.41642 0.42107,1.05879 0.87292,2.5458 1.00418,3.30447 0.46646,2.69667 5.10054,19.33548 5.48047,19.67787 0.21256,0.19161 0.47745,1.27471 0.58868,2.40699 0.11132,1.13235 0.40965,2.21977 0.66313,2.41652 0.25349,0.19674 0.5519,1.28417 0.66312,2.41645 0.11114,1.13233 0.40965,2.21973 0.66317,2.41649 0.25345,0.19675 0.55025,1.28808 0.65945,2.42516 0.10916,1.13706 0.48752,2.17429 0.84067,2.30499 0.35318,0.13073 0.48044,0.49329 0.28278,0.80576 -0.19768,0.31245 -0.0146,1.44965 0.40629,2.52707 0.42115,1.07749 0.84385,2.58909 0.93938,3.35918 0.20753,1.67295 2.30757,9.39784 2.77893,10.22209 0.55952,0.97849 1.37966,-0.2846 6.43611,-9.91226 z m 12.45469,-22.87871 c 1.60871,-2.60288 2.9533,-5.27442 2.98803,-5.93664 0.0349,-0.66226 0.33693,-1.20125 0.67153,-1.19775 0.33464,0.004 1.31841,-1.69166 2.18619,-3.76704 1.1823,-2.82769 1.3887,-4.00605 0.82359,-4.70165 -0.41478,-0.51057 -0.59162,-1.08748 -0.39292,-1.28202 0.19868,-0.19455 0.005,-1.25235 -0.4308,-2.35069 -0.43559,-1.09834 -0.8957,-2.56664 -1.02238,-3.26282 -0.55511,-3.05022 -3.7513,-13.99077 -4.28828,-14.67891 -0.32538,-0.41688 -0.429,-0.91714 -0.23033,-1.1117 0.19866,-0.19456 0.002,-1.2524 -0.43677,-2.35077 -0.43886,-1.09836 -0.74918,-2.21812 -0.68959,-2.48837 0.0597,-0.27018 -0.23722,-1.35762 -0.65962,-2.41642 -0.42233,-1.05884 -0.88627,-2.69314 -1.03095,-3.6318 -0.14465,-0.93871 -0.54651,-2.0557 -0.89304,-2.48225 -0.34651,-0.42654 -0.4675,-0.93473 -0.26886,-1.12927 0.19871,-0.19453 0.005,-1.25234 -0.43076,-2.35069 -0.4356,-1.09834 -0.89817,-2.61771 -1.02789,-3.37635 -0.53749,-3.143 -5.01531,-18.69735 -5.58433,-19.39771 -0.33894,-0.41726 -0.4537,-0.91777 -0.25505,-1.11232 0.19866,-0.19454 0.002,-1.25238 -0.43673,-2.35077 -0.43889,-1.09837 -0.74922,-2.21811 -0.68962,-2.48835 0.0597,-0.27021 -0.23881,-1.35763 -0.66314,-2.41648 -0.4243,-1.05884 -0.72272,-2.14627 -0.66314,-2.41649 0.0597,-0.27022 -0.2361,-1.3576 -0.65716,-2.41641 -0.42106,-1.05879 -0.87167,-2.54581 -1.00142,-3.30445 -0.53748,-3.14302 -5.01534,-18.69734 -5.58431,-19.39774 -0.33895,-0.41723 -0.45372,-0.91775 -0.25508,-1.11233 0.19866,-0.19453 0.002,-1.25239 -0.43673,-2.35074 -0.43888,-1.09838 -0.7492,-2.21815 -0.68958,-2.48835 0.0597,-0.27024 -0.23883,-1.35765 -0.66315,-2.41649 -0.4243,-1.05883 -0.72273,-2.14626 -0.66314,-2.41649 0.0597,-0.2702 -0.23883,-1.35762 -0.66313,-2.41646 -0.42429,-1.05885 -0.72271,-2.14627 -0.66315,-2.41648 0.0598,-0.27024 -0.23612,-1.35762 -0.65714,-2.41644 -0.42108,-1.05879 -0.86925,-2.49472 -0.99593,-3.19095 -0.5551,-3.05017 -3.75128,-13.99075 -4.2883,-14.67888 -0.32534,-0.41688 -0.42896,-0.91715 -0.23033,-1.11172 0.1987,-0.19455 0.002,-1.25237 -0.43673,-2.35072 -0.43888,-1.09841 -0.74922,-2.21815 -0.6896,-2.4884 0.0597,-0.27019 -0.23613,-1.35758 -0.65721,-2.41637 -0.42103,-1.05885 -0.87018,-2.54581 -0.99809,-3.30444 -0.12792,-0.75864 -0.42551,-1.84602 -0.66133,-2.41646 -0.23585,-0.57043 -0.53423,-1.65788 -0.66313,-2.41648 -0.12886,-0.75863 -0.42731,-1.84604 -0.66313,-2.41649 -0.23584,-0.57042 -0.53901,-1.64746 -0.67376,-2.3934 -0.34706,-1.92117 -2.1919,-4.63149 -2.87277,-4.22044 -0.31486,0.19003 -3.19283,0.43391 -6.39554,0.54197 -8.27203,0.27907 -8.27059,0.27764 -6.74342,6.58557 0.68929,2.84703 1.45113,5.64318 1.693,6.21367 0.24188,0.57049 0.39185,1.25837 0.33329,1.52861 -0.0587,0.27024 0.24067,1.35764 0.66503,2.41651 0.4243,1.05885 0.72272,2.14624 0.66311,2.41645 -0.0598,0.27023 0.23883,1.35766 0.66315,2.41649 0.4243,1.05885 0.7227,2.14624 0.66312,2.41649 -0.0597,0.27023 0.23723,1.35761 0.65959,2.41644 0.4224,1.05882 0.88632,2.69315 1.03096,3.63182 0.14465,0.93867 0.54656,2.05568 0.89307,2.48222 0.34652,0.42656 0.46748,0.93471 0.26882,1.12928 -0.19865,0.19453 -0.005,1.25236 0.4308,2.3507 0.43563,1.09832 0.89816,2.61766 1.02792,3.37631 0.53745,3.14302 5.0153,18.69735 5.5843,19.39774 0.33895,0.41723 0.4537,0.91777 0.25505,1.11233 -0.19868,0.19455 -0.002,1.2524 0.43673,2.35076 0.43889,1.09836 0.74921,2.21812 0.68961,2.48835 -0.0597,0.27023 0.23881,1.35765 0.66313,2.41648 0.42433,1.05882 0.72272,2.14625 0.66311,2.41647 -0.0597,0.27022 0.23616,1.35761 0.6572,2.41642 0.42108,1.05882 0.87168,2.5458 1.00145,3.30446 0.53747,3.143 5.0153,18.69735 5.58427,19.39773 0.33897,0.41722 0.45375,0.91777 0.25508,1.11233 -0.19868,0.19452 -0.002,1.2524 0.43675,2.35076 0.43886,1.09837 0.74919,2.21814 0.68959,2.48835 -0.0597,0.27022 0.23882,1.35765 0.66313,2.41648 0.42432,1.05884 0.72274,2.14626 0.66314,2.41647 -0.0597,0.27023 0.23883,1.35763 0.66313,2.41647 0.42433,1.05885 0.72272,2.14627 0.66312,2.4165 -0.0598,0.27022 0.23615,1.35761 0.65721,2.41642 0.42106,1.05879 0.8717,2.54577 1.00141,3.30442 0.53747,3.14301 5.01531,18.69736 5.58433,19.39776 0.33893,0.41723 0.45371,0.91778 0.25505,1.11231 -0.19868,0.19455 -0.002,1.25241 0.43672,2.3508 0.43889,1.09835 0.74921,2.2181 0.68961,2.48833 -0.0597,0.2702 0.23882,1.35763 0.66313,2.41647 0.42433,1.05885 0.72276,2.14624 0.66313,2.41648 -0.0597,0.27021 0.23881,1.35763 0.66314,2.4165 0.42431,1.05881 0.72273,2.14624 0.66312,2.41647 -0.0597,0.27019 0.23616,1.35761 0.65721,2.41641 0.42102,1.05881 0.87404,2.54583 1.00665,3.30449 0.27231,1.55785 3.38158,12.5647 3.99851,14.15485 0.22127,0.57029 0.50775,1.65756 0.63666,2.41619 0.12887,0.75864 0.43145,1.8461 0.67237,2.41658 0.58103,1.37605 0.70408,1.86702 0.79279,3.16367 0.13864,2.02487 1.7866,0.56232 4.72643,-4.19439 z m 12.14809,-21.19911 c 0.006,-0.54557 0.24842,-0.98945 0.53933,-0.98639 0.57538,0.006 6.53727,-9.00677 6.33167,-9.57179 -0.0692,-0.19011 0.70747,-1.22592 1.72581,-2.30189 1.55954,-1.6478 1.80035,-2.40149 1.52691,-4.77898 -0.17858,-1.55241 -0.54329,-2.99064 -0.8104,-3.19603 -0.26715,-0.20536 -0.57511,-1.30376 -0.68431,-2.44082 -0.10916,-1.13707 -0.48754,-2.17432 -0.8407,-2.30502 -0.35318,-0.13073 -0.4804,-0.4933 -0.28276,-0.80573 0.19767,-0.31247 0.007,-1.44978 -0.42463,-2.52733 -0.4312,-1.07755 -0.73524,-2.18028 -0.67566,-2.45047 0.0597,-0.27024 -0.23612,-1.35765 -0.65719,-2.41643 -0.42104,-1.0588 -0.8736,-2.54584 -1.0057,-3.30452 -0.38348,-2.20281 -4.28497,-16.39752 -5.02879,-18.29627 -0.37235,-0.95049 -0.78598,-2.6587 -0.91914,-3.79601 -0.13314,-1.13732 -0.54736,-2.17496 -0.92047,-2.30589 -0.3731,-0.13092 -0.51667,-0.49364 -0.31898,-0.80611 0.19765,-0.31243 0.008,-1.44972 -0.42465,-2.52729 -0.43122,-1.07755 -0.73526,-2.18028 -0.67566,-2.4505 0.0597,-0.27022 -0.23882,-1.35763 -0.66315,-2.41647 -0.42429,-1.05883 -0.72271,-2.14628 -0.6631,-2.41646 0.0597,-0.27024 -0.23614,-1.35764 -0.65721,-2.41645 -0.42104,-1.0588 -0.87171,-2.5458 -1.00141,-3.30442 -0.53745,-3.14303 -5.01531,-18.69738 -5.58431,-19.39777 -0.33893,-0.41721 -0.45373,-0.91777 -0.25507,-1.1123 0.19869,-0.19456 0.002,-1.25241 -0.43674,-2.35077 -0.43886,-1.09838 -0.74919,-2.21812 -0.6896,-2.48837 0.0597,-0.27018 -0.2388,-1.35762 -0.6631,-2.41644 -0.42433,-1.05887 -0.72277,-2.14629 -0.66315,-2.4165 0.0596,-0.27024 -0.23881,-1.35763 -0.66313,-2.41649 -0.42432,-1.05882 -0.72273,-2.14624 -0.66311,-2.41647 0.0597,-0.2702 -0.23618,-1.35763 -0.65721,-2.41642 -0.42106,-1.0588 -0.87014,-2.54577 -0.99793,-3.30441 -0.36204,-2.14928 -4.96901,-18.5571 -5.42831,-19.33311 -0.22549,-0.381 -0.5072,-1.46053 -0.62597,-2.39896 -0.11872,-0.93838 -0.49952,-2.05513 -0.846,-2.48171 -0.34653,-0.42655 -0.46751,-0.93472 -0.26886,-1.12927 0.19868,-0.19454 0.002,-1.2524 -0.43673,-2.35075 -0.43889,-1.0984 -0.7492,-2.21814 -0.6896,-2.48836 0.0597,-0.27023 -0.23722,-1.35762 -0.65961,-2.41644 -0.42237,-1.05883 -0.88392,-2.70083 -1.02567,-3.64892 -0.34117,-2.28243 -1.83078,-3.78728 -3.02518,-3.0562 -0.51294,0.31397 -1.47373,0.47599 -2.13515,0.36006 -0.66142,-0.11596 -1.20572,0.0894 -1.20956,0.45638 -0.004,0.36694 -0.62479,0.4987 -1.37994,0.29276 -0.75512,-0.20595 -1.37647,-0.0382 -1.38077,0.37258 -0.004,0.41089 -0.47452,0.56234 -1.04494,0.33658 -0.57045,-0.22578 -1.45248,-0.0732 -1.96012,0.3393 -0.50765,0.41242 -1.09842,0.57068 -1.31283,0.35171 -0.21439,-0.21897 -1.02466,-0.067 -1.80053,0.33798 -1.32531,0.69154 -1.35377,0.90288 -0.47027,3.49305 0.51717,1.51632 0.78828,2.75537 0.60249,2.75342 -0.18593,-0.001 -0.0256,0.59484 0.35598,1.32621 0.3816,0.73135 0.86911,2.51778 1.08338,3.96986 0.21426,1.45206 0.57901,2.95191 0.8106,3.33297 0.2316,0.38107 0.50462,1.31334 0.60669,2.07168 0.10203,0.75834 0.37857,1.84554 0.61435,2.41598 0.23583,0.57043 0.53426,1.65782 0.66314,2.41647 0.12886,0.75862 0.42732,1.84604 0.66315,2.41649 0.23583,0.57042 0.53425,1.65784 0.66313,2.41647 0.12888,0.75862 0.42731,1.84605 0.66313,2.41646 0.23584,0.57043 0.53422,1.65786 0.66314,2.41648 0.12887,0.75866 0.42729,1.84605 0.66314,2.41646 0.23584,0.57046 0.53424,1.65788 0.66312,2.41651 0.12887,0.75863 0.42731,1.84605 0.66312,2.41648 0.23583,0.57041 0.53567,1.65784 0.66627,2.4165 0.49482,2.874 3.72211,13.84004 4.28653,14.56545 0.32436,0.41688 0.42721,0.91711 0.22856,1.11167 -0.19867,0.19457 -0.002,1.25237 0.43674,2.35075 0.4389,1.09841 0.7492,2.21815 0.68962,2.48839 -0.0597,0.27021 0.23881,1.35762 0.6631,2.41647 0.42433,1.05884 0.72274,2.14623 0.66315,2.41646 -0.0597,0.27024 0.23882,1.35764 0.66312,2.41649 0.42433,1.05883 0.72277,2.14626 0.66314,2.41647 -0.0597,0.27023 0.23615,1.35761 0.65719,2.41642 0.42105,1.05881 0.87361,2.54582 1.0057,3.30451 0.38349,2.20282 4.28499,16.39757 5.02881,18.29626 0.37234,0.95051 0.78494,2.643 0.91685,3.7611 0.13201,1.11807 0.46623,2.20589 0.74288,2.41732 0.27674,0.21141 0.59247,1.31472 0.70169,2.4518 0.10916,1.13705 0.48753,2.17431 0.84069,2.30502 0.35317,0.13072 0.48039,0.49329 0.28274,0.80574 -0.19764,0.31248 -0.01,1.4497 0.42112,2.52724 0.42926,1.07757 0.89536,2.69913 1.0358,3.60346 0.47892,3.08436 6.24736,23.17927 6.87597,23.95299 0.34464,0.42424 0.46406,0.9305 0.26538,1.12503 -0.19867,0.19455 -0.002,1.25239 0.43675,2.35078 0.43891,1.09835 0.7492,2.21811 0.68961,2.48834 -0.0597,0.2702 0.23881,1.35764 0.66312,2.41648 0.42432,1.05884 0.72275,2.14623 0.66314,2.41647 -0.0597,0.2702 0.23881,1.35765 0.66312,2.4165 0.42433,1.05881 0.72273,2.14624 0.66316,2.41647 -0.0597,0.27019 0.18884,1.29829 0.55204,2.28462 0.66799,1.81391 2.0399,1.78953 2.05903,-0.0365 z m 15.45714,-23.58316 c 0.74707,-0.38983 1.19929,-0.97223 1.00493,-1.29423 -0.1944,-0.32198 0.13101,-0.76553 0.72312,-0.98568 0.59207,-0.22011 0.90668,-0.68152 0.69915,-1.02533 -0.20757,-0.34378 0.10717,-0.80521 0.69921,-1.02532 0.59207,-0.22012 0.90668,-0.68155 0.69914,-1.02533 -0.20754,-0.34383 0.10718,-0.80523 0.6992,-1.02535 0.59205,-0.22013 0.88698,-0.71421 0.65531,-1.09793 -0.23161,-0.38374 -0.0994,-0.69431 0.29391,-0.6902 0.39329,0.004 1.65514,-1.59923 2.80409,-3.56295 2.02202,-3.45591 2.36942,-6.79759 0.94956,-9.13386 -0.23158,-0.38109 -0.50208,-1.25154 -0.60106,-1.93433 -0.37233,-2.5676 -5.00384,-18.80859 -5.57099,-19.53525 -0.32533,-0.41689 -0.42901,-0.91717 -0.23033,-1.11169 0.19867,-0.19457 0.002,-1.25241 -0.43673,-2.35079 -0.43891,-1.09838 -0.74923,-2.21812 -0.68962,-2.48832 0.0597,-0.27023 -0.23883,-1.35767 -0.66314,-2.4165 -0.4243,-1.05884 -0.72272,-2.14623 -0.66312,-2.41649 0.0597,-0.2702 -0.23614,-1.35759 -0.6572,-2.41639 -0.42104,-1.05882 -0.87169,-2.5458 -1.00145,-3.30445 -0.53742,-3.14302 -5.01527,-18.69736 -5.58429,-19.39776 -0.33895,-0.41721 -0.45373,-0.91776 -0.25506,-1.11231 0.19868,-0.19455 0.002,-1.2524 -0.43672,-2.35077 -0.43887,-1.09835 -0.7492,-2.21813 -0.68961,-2.48834 0.0597,-0.27024 -0.2388,-1.35765 -0.66312,-2.4165 -0.42432,-1.05883 -0.72276,-2.14624 -0.66313,-2.41647 0.0597,-0.27019 -0.23883,-1.35765 -0.66314,-2.41648 -0.42432,-1.05883 -0.72275,-2.14624 -0.66311,-2.41648 0.0597,-0.27022 -0.23618,-1.35759 -0.65721,-2.41642 -0.42104,-1.0588 -0.87012,-2.54576 -0.9979,-3.3044 -0.36207,-2.14926 -4.96904,-18.5571 -5.42834,-19.33312 -0.2255,-0.38101 -0.50719,-1.4605 -0.62598,-2.39894 -0.11872,-0.93839 -0.49948,-2.05519 -0.84599,-2.48174 -0.34654,-0.42653 -0.46753,-0.93469 -0.26884,-1.12925 0.19868,-0.19455 0.003,-1.25238 -0.43323,-2.35073 -0.43692,-1.09834 -0.91279,-2.76502 -1.05744,-3.70371 -0.14461,-0.93866 -0.58662,-2.10504 -0.98215,-2.59192 -0.39554,-0.48689 -0.52219,-0.88315 -0.28145,-0.88063 0.24072,0.002 -0.004,-1.08435 -0.54372,-2.41525 -0.53981,-1.33089 -0.80444,-2.41795 -0.58812,-2.41569 0.21636,0.002 0.007,-0.47161 -0.4655,-1.0531 -0.90755,-1.11712 -1.93668,-0.98049 -6.19166,0.82214 -1.33113,0.56396 -2.98692,1.13072 -3.6795,1.25949 -1.21529,0.22596 -2.55322,0.86186 -4.50937,2.14327 -0.76172,0.49897 -0.60766,1.85064 0.84731,7.43265 0.97809,3.75253 2.05283,7.16391 2.3883,7.58092 0.33545,0.41698 0.44736,0.91733 0.24867,1.11189 -0.19864,0.19457 -0.002,1.25241 0.43677,2.35077 0.43888,1.09837 0.74919,2.21812 0.68959,2.48835 -0.0597,0.27022 0.23721,1.35762 0.6596,2.41645 0.42238,1.05884 0.88632,2.69312 1.03097,3.63181 0.14463,0.93867 0.54653,2.05568 0.89304,2.48223 0.34653,0.42653 0.46752,0.93471 0.26884,1.12926 -0.19866,0.19457 -0.005,1.25237 0.4308,2.35069 0.43559,1.09837 0.90008,2.61773 1.03214,3.37639 0.38349,2.20283 4.28499,16.39756 5.02887,18.29628 0.37232,0.9505 0.78492,2.64298 0.91682,3.76108 0.13182,1.1181 0.46621,2.20589 0.74294,2.41732 0.27667,0.21142 0.59404,1.31083 0.70529,2.44315 0.11113,1.13232 0.40963,2.21973 0.66311,2.41647 0.25351,0.19677 0.55028,1.2881 0.65949,2.42514 0.10916,1.13707 0.48751,2.17433 0.84069,2.30503 0.35317,0.1307 0.4804,0.49329 0.28276,0.80574 -0.19766,0.31246 -0.01,1.44971 0.41867,2.52721 0.42796,1.07755 0.88545,2.57986 1.01668,3.33852 0.46647,2.69668 5.10055,19.33551 5.4805,19.67788 0.21254,0.19162 0.47746,1.27471 0.58867,2.40701 0.11114,1.13231 0.40964,2.21972 0.66313,2.41648 0.2535,0.19675 0.55027,1.28805 0.65947,2.42512 0.10917,1.13708 0.48755,2.17435 0.84071,2.30506 0.35318,0.1307 0.48041,0.49326 0.28275,0.80572 -0.19766,0.31246 -0.0131,1.44967 0.41085,2.52715 0.42362,1.07748 0.82744,2.42431 0.89735,2.99302 0.19589,1.59313 4.39149,16.69365 5.17961,18.64208 0.89165,2.20437 0.96092,2.47826 1.0474,4.14163 0.0821,1.57861 0.33332,1.65559 2.20881,0.677 z m 17.28257,-24.24219 c 0.64445,-1.11919 1.39123,-2.13126 1.65955,-2.24905 0.59831,-0.26259 4.93752,-6.12737 6.09736,-8.2411 1.28929,-2.34954 1.47479,-4.0927 0.65309,-6.13751 -0.41152,-1.02399 -0.69941,-2.08288 -0.63978,-2.35309 0.0597,-0.27023 -0.23884,-1.35764 -0.66313,-2.41647 -0.42435,-1.05884 -0.72274,-2.14628 -0.66315,-2.41647 0.0597,-0.27024 -0.23884,-1.35766 -0.6631,-2.41652 -0.42435,-1.05882 -0.72276,-2.14622 -0.66317,-2.41647 0.0597,-0.2702 -0.23882,-1.35762 -0.66314,-2.41646 -0.42431,-1.05886 -0.72273,-2.14626 -0.66314,-2.41648 0.0597,-0.27021 -0.23612,-1.35762 -0.65717,-2.41639 -0.42106,-1.05882 -0.87169,-2.54583 -1.00142,-3.30447 -0.53748,-3.143 -5.01535,-18.69737 -5.5843,-19.39774 -0.33897,-0.41723 -0.45374,-0.91775 -0.25507,-1.11231 0.19865,-0.19457 0.002,-1.25241 -0.43676,-2.35076 -0.43886,-1.09841 -0.74918,-2.21816 -0.68956,-2.48838 0.0597,-0.27021 -0.23884,-1.35764 -0.66315,-2.41648 -0.42431,-1.05882 -0.72276,-2.14625 -0.66314,-2.41648 0.0597,-0.27022 -0.23615,-1.3576 -0.65718,-2.41642 -0.42108,-1.05881 -0.87012,-2.54577 -0.99792,-3.3044 -0.49557,-2.94182 -5.04707,-18.68068 -5.60978,-19.39836 -0.32686,-0.41689 -0.43178,-0.91719 -0.2331,-1.11175 0.19868,-0.19451 0.002,-1.25239 -0.43673,-2.35073 -0.4389,-1.0984 -0.74922,-2.21816 -0.68962,-2.48837 0.0597,-0.27024 -0.23613,-1.3576 -0.65719,-2.41642 -0.42103,-1.0588 -0.8702,-2.54579 -0.9981,-3.30441 -0.1279,-0.75862 -0.42551,-1.84603 -0.66134,-2.41646 -0.23583,-0.57042 -0.53424,-1.65785 -0.66313,-2.41647 -0.12888,-0.75864 -0.43144,-1.84609 -0.67234,-2.41656 -0.24092,-0.57051 -0.47308,-1.19254 -0.51593,-1.38231 -0.043,-0.18983 -0.64908,-2.2893 -1.34707,-4.66567 -1.12233,-3.82104 -1.43351,-4.26837 -2.69113,-3.8687 -0.78213,0.24857 -1.96378,0.41243 -2.6259,0.36413 -0.66212,-0.0484 -1.20629,0.12532 -1.20929,0.38562 -0.003,0.26046 -0.84805,0.51361 -1.87795,0.56259 -1.02985,0.0489 -1.98283,0.40885 -2.11768,0.79968 -0.13476,0.39085 -0.68802,0.53535 -1.22926,0.32112 -0.54127,-0.2142 -0.98769,-0.0466 -0.99207,0.37251 -0.004,0.41911 -0.23981,0.71042 -0.52311,0.64732 -0.28336,-0.063 -1.03262,0.10661 -1.66511,0.37744 -1.05216,0.45021 -1.01335,1.00176 0.4557,6.48211 0.88312,3.2945 1.77656,7.07607 1.98544,8.40352 0.20887,1.32744 0.56924,2.72528 0.80085,3.10634 0.23159,0.38108 0.5046,1.31333 0.60667,2.07168 0.10199,0.75834 0.37853,1.84556 0.61437,2.41595 0.23582,0.57045 0.53421,1.65788 0.66313,2.41651 0.12885,0.75862 0.42729,1.84604 0.66313,2.41646 0.23584,0.57042 0.53423,1.65786 0.66313,2.4165 0.12887,0.75861 0.4273,1.84604 0.66314,2.41648 0.23581,0.57044 0.53423,1.65783 0.66314,2.41647 0.12885,0.75863 0.4273,1.84604 0.66313,2.41648 0.23581,0.57042 0.53422,1.65785 0.66312,2.41647 0.12889,0.75863 0.42731,1.84606 0.66312,2.41648 0.23583,0.57044 0.5358,1.65787 0.66656,2.41652 0.52599,3.05106 3.68768,13.85599 4.262,14.56519 0.3377,0.41699 0.45147,0.91736 0.25278,1.11191 -0.19861,0.19458 -0.002,1.2524 0.43675,2.35077 0.43889,1.09838 0.74922,2.21814 0.68961,2.48837 -0.0597,0.27021 0.23882,1.35762 0.66312,2.41646 0.42432,1.05886 0.72275,2.14628 0.66313,2.4165 -0.0596,0.27023 0.23884,1.35764 0.66314,2.41647 0.42431,1.05885 0.72274,2.14624 0.66315,2.41649 -0.0597,0.2702 0.23614,1.3576 0.65717,2.4164 0.42105,1.05882 0.86809,2.54577 0.9934,3.30439 0.25665,1.55346 4.7033,17.38593 5.33282,18.98787 0.22415,0.57031 0.51301,1.65763 0.64189,2.41627 0.12889,0.7586 0.42732,1.84604 0.66314,2.41647 0.23582,0.57043 0.53423,1.65784 0.66313,2.41647 0.12888,0.75864 0.43146,1.84609 0.67237,2.41662 0.2409,0.57044 0.48286,1.19258 0.53776,1.38247 1.76718,6.11707 3.22114,10.82576 3.47682,11.25989 0.55322,0.93922 1.63577,0.21416 2.8633,-1.91773 z m 16.60392,-21.32165 c 1.09777,-1.40843 1.94837,-2.61414 1.89028,-2.67942 -0.0582,-0.0652 1.24195,-1.55598 2.88903,-3.31271 4.25576,-4.53906 4.81126,-5.73465 3.82362,-8.22931 -0.44583,-1.12604 -0.91818,-2.66808 -1.04974,-3.42673 -0.37954,-2.18852 -5.61016,-21.21897 -6.35724,-23.12928 -0.3717,-0.9505 -0.78376,-2.643 -0.91566,-3.76109 -0.13181,-1.11807 -0.4662,-2.20586 -0.74293,-2.4173 -0.2767,-0.21141 -0.59242,-1.31475 -0.70163,-2.45182 -0.10916,-1.13704 -0.48756,-2.1743 -0.84072,-2.30503 -0.35315,-0.13071 -0.4804,-0.49327 -0.28275,-0.80572 0.19768,-0.31245 0.01,-1.4497 -0.41867,-2.52725 -0.42793,-1.0775 -0.88614,-2.57984 -1.01821,-3.33849 -0.3835,-2.20284 -4.28499,-16.39757 -5.02883,-18.29629 -0.37235,-0.95049 -0.78597,-2.65871 -0.91913,-3.79605 -0.13316,-1.13729 -0.54737,-2.17494 -0.92045,-2.30585 -0.37314,-0.13095 -0.5167,-0.49364 -0.31902,-0.80611 0.19767,-0.31245 0.007,-1.44974 -0.42463,-2.52727 -0.43121,-1.07758 -0.73527,-2.18029 -0.67567,-2.45053 0.0597,-0.2702 -0.23879,-1.35764 -0.66312,-2.41647 -0.42432,-1.05885 -0.72274,-2.14627 -0.66313,-2.41648 0.0597,-0.27023 -0.23261,-1.35757 -0.64935,-2.41634 -0.41672,-1.05876 -0.81593,-2.39032 -0.88712,-2.95903 -0.0711,-0.56869 -0.66944,-3.00136 -1.32947,-5.40594 l -1.20005,-4.37193 -2.38086,0.4209 c -1.30948,0.23147 -3.20318,0.75186 -4.20826,1.15638 -1.00507,0.40451 -2.04849,0.68669 -2.31872,0.62714 -0.27023,-0.0596 -1.35761,0.23881 -2.4165,0.66312 -1.05882,0.42432 -2.16555,0.71606 -2.45935,0.64835 -1.02874,-0.23718 -1.32384,1.91262 -0.66556,4.84944 2.07495,9.25746 3.52213,14.6951 4.10036,15.40688 0.36001,0.44316 0.49204,0.96492 0.29339,1.15947 -0.19869,0.19455 -0.002,1.2524 0.43673,2.35076 0.4389,1.09838 0.7492,2.21814 0.68959,2.48837 -0.0598,0.27021 0.23883,1.35762 0.66314,2.41646 0.42434,1.05886 0.72273,2.14628 0.66311,2.41649 -0.0597,0.27023 0.23885,1.35763 0.66316,2.41648 0.42432,1.05884 0.72274,2.14626 0.66313,2.41648 -0.0597,0.27023 0.23614,1.35761 0.65718,2.41643 0.42106,1.05881 0.87022,2.54579 0.99812,3.30441 0.12791,0.75861 0.42551,1.84603 0.66134,2.41646 0.23581,0.57042 0.53578,1.65787 0.66657,2.41652 0.52598,3.05107 3.68765,13.85596 4.26196,14.56518 0.3377,0.417 0.45148,0.91737 0.25281,1.11193 -0.19866,0.19452 -0.002,1.2524 0.43676,2.35077 0.43887,1.09836 0.74918,2.2181 0.68959,2.48836 -0.0597,0.27022 0.23881,1.35764 0.66311,2.41646 0.42432,1.05883 0.72276,2.14626 0.66315,2.41649 -0.0598,0.27021 0.23885,1.35763 0.66311,2.41646 0.42435,1.05885 0.72277,2.14627 0.66314,2.41648 -0.0595,0.27025 0.23616,1.35762 0.65721,2.41643 0.42103,1.05881 0.87162,2.5458 1.00124,3.30443 0.35949,2.10396 3.64264,13.71405 4.10041,14.50016 0.22182,0.38096 0.48688,1.31312 0.58898,2.07149 0.10197,0.75833 0.37876,1.84552 0.61491,2.41597 0.23611,0.57042 0.50339,1.34773 0.59398,1.72732 0.50122,2.10096 1.68578,4.4925 2.22804,4.49818 0.343,0.004 1.52185,-1.14579 2.61962,-2.55421 z m 16.68364,-20.50482 c -0.1627,-0.16615 0.62529,-1.0606 1.75095,-1.9878 1.12562,-0.9272 1.89532,-1.93654 1.71038,-2.24292 -0.18502,-0.30639 0.11527,-0.72491 0.66692,-0.93005 0.55178,-0.20511 1.79001,-1.59093 2.75172,-3.07955 1.49056,-2.30734 1.65249,-3.04669 1.09791,-5.01255 -0.35777,-1.26829 -0.81609,-3.39201 -1.01842,-4.71938 -0.20236,-1.32734 -0.64196,-2.75454 -0.97689,-3.17155 -0.33492,-0.41697 -0.44643,-0.91731 -0.24774,-1.11189 0.19868,-0.19454 0.002,-1.25239 -0.43674,-2.35075 -0.43891,-1.09836 -0.74918,-2.21812 -0.68962,-2.48836 0.0598,-0.27021 -0.2388,-1.35762 -0.66313,-2.41648 -0.42432,-1.05885 -0.72271,-2.14624 -0.66313,-2.41647 0.0597,-0.27023 -0.23878,-1.35761 -0.66314,-2.41646 -0.42432,-1.05886 -0.72272,-2.14625 -0.66315,-2.41648 0.0597,-0.27023 -0.23258,-1.35757 -0.64933,-2.41636 -0.41675,-1.05875 -0.81272,-2.39029 -0.87997,-2.95895 -0.25988,-2.19678 -5.1297,-19.02462 -5.71355,-19.7433 -0.33897,-0.41722 -0.45375,-0.91778 -0.25511,-1.11232 0.19866,-0.19455 0.002,-1.25241 -0.43672,-2.35078 -0.4389,-1.09838 -0.7492,-2.21812 -0.68962,-2.48834 0.0597,-0.27022 -0.23878,-1.35763 -0.66313,-2.4165 -0.42431,-1.05883 -0.72272,-2.14625 -0.66313,-2.41647 0.0597,-0.2702 -0.2388,-1.35762 -0.66312,-2.41646 -0.4243,-1.05886 -0.72272,-2.14624 -0.66314,-2.4165 0.0597,-0.27019 -0.2364,-1.35759 -0.65775,-2.41642 -0.42136,-1.05882 -0.85125,-2.39069 -0.9553,-2.95975 -0.53594,-2.93059 -1.86935,-7.35023 -2.44831,-8.11476 -0.69889,-0.92304 -3.38657,-1.20685 -4.16933,-0.44029 -0.25783,0.25246 -1.16426,0.52606 -2.0143,0.608 -4.70437,0.4534 -7.82943,1.07229 -8.60784,1.70468 -0.95015,0.77188 -1.19333,2.77289 -0.43153,3.55078 0.25938,0.26491 0.5633,1.17167 0.67531,2.01501 0.11204,0.84337 0.39666,2.00009 0.63248,2.57053 0.23581,0.57045 0.53323,1.60679 0.66093,2.30304 0.56441,3.07726 3.75457,13.99266 4.29014,14.67888 0.3253,0.41691 0.42895,0.91717 0.23028,1.11173 -0.19868,0.19453 -0.002,1.25239 0.43674,2.35075 0.43887,1.09838 0.74919,2.21814 0.68961,2.48836 -0.0597,0.27023 0.2388,1.35762 0.66313,2.41647 0.42432,1.05884 0.7227,2.14628 0.66309,2.41648 -0.0598,0.27022 0.23886,1.35763 0.66316,2.41648 0.42433,1.05885 0.72273,2.14625 0.6631,2.41649 -0.0595,0.27022 0.23617,1.35759 0.65722,2.41642 0.42104,1.05882 0.87292,2.54582 1.00416,3.30448 0.46647,2.69665 5.10053,19.33546 5.48049,19.67786 0.21253,0.19162 0.47745,1.27472 0.5887,2.40701 0.11113,1.13233 0.4096,2.21971 0.6631,2.41648 0.25352,0.19678 0.55029,1.28807 0.65947,2.42516 0.10916,1.13706 0.48752,2.17433 0.84068,2.305 0.35319,0.13073 0.48043,0.4933 0.28277,0.80575 -0.19765,0.31246 -0.0147,1.44966 0.40632,2.5271 0.4211,1.07744 0.84384,2.58908 0.93937,3.35913 0.20698,1.66877 2.30701,9.39678 2.77676,10.21855 0.18126,0.31693 1.23042,-0.26908 2.33166,-1.30227 1.10126,-1.03317 1.86923,-2.01438 1.70659,-2.18046 z m 19.32974,-21.50045 c 2.98782,-3.44724 5.732,-6.63874 6.09811,-7.09222 0.79471,-0.98432 0.887,-2.25666 0.16437,-2.26614 -0.28392,-0.003 -0.5766,-1.01143 -0.65038,-2.23937 -0.0737,-1.22793 -0.45129,-2.34199 -0.83891,-2.47574 -0.38764,-0.13378 -0.54305,-0.49882 -0.34537,-0.81127 0.19764,-0.31245 0.007,-1.44972 -0.42466,-2.52728 -0.43121,-1.07757 -0.73527,-2.18029 -0.67563,-2.45051 0.0597,-0.27021 -0.23618,-1.35762 -0.6572,-2.41642 -0.42108,-1.05879 -0.87169,-2.54581 -1.00145,-3.30445 -0.53746,-3.143 -5.01529,-18.69735 -5.5843,-19.39774 -0.33893,-0.4172 -0.45372,-0.91776 -0.25508,-1.1123 0.1987,-0.19456 0.002,-1.2524 -0.43671,-2.35077 -0.4389,-1.09837 -0.74919,-2.21815 -0.68961,-2.48835 0.0597,-0.27023 -0.23883,-1.35763 -0.66314,-2.41648 -0.42432,-1.05885 -0.72271,-2.14626 -0.66311,-2.4165 0.0597,-0.27021 -0.23616,-1.35759 -0.65721,-2.41643 -0.42104,-1.0588 -0.87212,-2.54579 -1.0024,-3.30442 -0.13021,-0.75867 -0.74445,-2.93369 -1.36488,-4.83338 -1.13579,-3.47775 -1.27959,-3.99114 -1.42555,-5.08884 -0.0439,-0.32994 -2.7915,-0.50901 -6.10577,-0.39798 -9.85653,0.3303 -9.46128,0.22458 -9.54786,2.55421 -0.0422,1.1355 0.20075,2.84192 0.53995,3.79207 0.33914,0.95016 0.7534,2.50345 0.92054,3.45182 0.5845,3.31631 3.70511,14.15849 4.29137,14.90973 0.32534,0.41685 0.42895,0.91714 0.23032,1.11167 -0.19869,0.19457 -0.005,1.25237 0.43077,2.35071 0.43562,1.09835 0.8967,2.61765 1.02456,3.37629 0.12791,0.75863 0.42553,1.84602 0.66135,2.41649 0.23586,0.5704 0.53421,1.65782 0.66314,2.41645 0.12884,0.75863 0.42729,1.84607 0.66315,2.41647 0.2358,0.57045 0.53423,1.65787 0.6631,2.4165 0.12886,0.75862 0.4273,1.84603 0.66313,2.41646 0.23585,0.57043 0.53581,1.65788 0.66659,2.41653 0.52595,3.05108 3.68763,13.85599 4.26197,14.56516 0.33771,0.41704 0.45148,0.9174 0.25282,1.11196 -0.19866,0.19454 -0.002,1.25241 0.43672,2.35078 0.43887,1.09835 0.74921,2.21811 0.6896,2.48833 -0.0597,0.27022 0.23883,1.35766 0.66314,2.41647 0.42433,1.05884 0.72274,2.14627 0.66314,2.41648 -0.0597,0.27022 0.23707,1.35764 0.6593,2.41644 0.42221,1.05882 0.82385,2.23553 0.89249,2.61487 0.0686,0.37935 0.16952,0.92256 0.22421,1.20712 0.22602,1.17606 1.39598,0.13782 6.56532,-5.82642 z m 18.81597,-19.52646 c 7.59919,-7.70258 9.86019,-10.98627 10.68809,-15.52249 0.62448,-3.42158 0.70506,-12.29013 0.13912,-15.36949 -1.12862,-6.14701 -6.10695,-12.78331 -11.66488,-15.54975 -1.47189,-0.73263 -3.46229,-1.7391 -4.42313,-2.23659 -0.96083,-0.49749 -2.50436,-1.01659 -3.43012,-1.15357 -0.92571,-0.13712 -1.99089,-0.44407 -2.36704,-0.68243 -1.2469,-0.79017 -11.23903,-2.25053 -12.41285,-1.81414 -0.81781,0.30403 -1.02664,0.87839 -0.71776,1.97401 0.23958,0.84983 0.58762,2.32127 0.77335,3.2698 0.72948,3.72507 3.76633,14.19393 4.32522,14.91006 0.32532,0.41689 0.42895,0.91715 0.2303,1.11169 -0.19868,0.19456 -0.002,1.25239 0.43676,2.35075 0.43885,1.09837 0.74916,2.21814 0.68955,2.48838 -0.0597,0.27022 0.23885,1.35763 0.66315,2.41647 0.42432,1.05885 0.72274,2.14626 0.66314,2.41646 -0.0597,0.27024 0.23881,1.35765 0.66315,2.4165 0.42428,1.05883 0.72271,2.14625 0.66311,2.41647 -0.0597,0.27023 0.23615,1.3576 0.6572,2.41642 0.42107,1.0588 0.87435,2.54584 1.00736,3.30452 0.40991,2.33847 2.97977,11.63747 3.72073,13.4635 0.8525,2.10092 0.95721,2.47846 1.05322,3.79746 0.0414,0.5684 0.34451,1.03627 0.67363,1.03971 0.32909,0.004 3.9148,-3.35524 7.96812,-7.46374 z"
       id="path4500"
       inkscape:connector-curvature="0" />
    <g
       aria-label="harp"
       transform="rotate(0.60000034,-989.60284,-919.443)"
       style="font-style:normal;font-variant:normal;font-weight:normal;font-stretch:normal;line-height:0%;font-family:Comfortaa;-inkscape-font-specification:'Comfortaa, Normal';text-align:start;letter-spacing:0px;word-spacing:0px;writing-mode:lr-tb;text-anchor:start;opacity:1;fill:url(#linearGradient5467);fill-opacity:1;stroke:#433b6c;stroke-width:0.76748246px;stroke-linecap:butt;stroke-linejoin:miter;stroke-opacity:0.92173911;filter:url(#filter6231);image-rendering:auto"
       id="text4527">
      <path
         d="m 279.06732,625.58071 q 0,-2.226 1.55145,-3.77746 1.61891,-1.6189 3.84491,-1.6189 2.226,0 3.77746,1.6189 1.6189,1.55146 1.6189,3.77746 v 36.76271 q 10.11818,-9.78091 24.28363,-9.78091 14.50272,0 24.75581,10.32054 10.32054,10.25309 10.32054,24.75581 v 35.07635 q 0,2.226 -1.61891,3.84491 -1.55145,1.55145 -3.77745,1.55145 -2.226,0 -3.84491,-1.55145 -1.55145,-1.61891 -1.55145,-3.84491 v -35.07635 q 0,-10.05072 -7.15018,-17.13345 -7.08273,-7.15017 -17.13345,-7.15017 -10.05072,0 -17.2009,7.15017 -7.08273,7.08273 -7.08273,17.13345 v 35.07635 q 0,2.226 -1.6189,3.84491 -1.55146,1.55145 -3.77746,1.55145 -2.226,0 -3.84491,-1.55145 -1.55145,-1.61891 -1.55145,-3.84491 z"
         style="font-style:normal;font-variant:normal;font-weight:normal;font-stretch:normal;font-size:138.14685059px;line-height:139.99999762%;font-family:Comfortaa;-inkscape-font-specification:'Comfortaa, Normal';text-align:start;writing-mode:lr-tb;text-anchor:start;fill:url(#linearGradient5459);fill-opacity:1;stroke:#433b6c;stroke-width:0.76748246px;stroke-opacity:0.92173911"
         id="path4573"
         inkscape:connector-curvature="0" />
      <path
         d="m 397.78727,663.35524 q -11.19745,0 -19.08963,7.89217 -7.89218,7.89218 -7.89218,19.08963 0,11.19745 7.89218,19.08963 7.89218,7.89218 19.08963,7.89218 11.19745,0 19.08963,-7.89218 7.89218,-7.89218 7.89218,-19.08963 0,-11.19745 -7.89218,-19.08963 -7.89218,-7.89217 -19.08963,-7.89217 z m 26.98181,53.42397 q -11.33236,11.33236 -26.98181,11.33236 -15.64945,0 -26.71199,-11.06254 -11.06254,-11.06254 -11.06254,-26.71199 0,-15.64945 11.06254,-26.71199 11.06254,-11.06254 26.71199,-11.06254 15.64945,0 26.71199,11.06254 11.06254,11.06254 11.06254,26.71199 v 32.37817 q 0,2.226 -1.61891,3.84491 -1.55145,1.55145 -3.77745,1.55145 -2.226,0 -3.84491,-1.55145 -1.55145,-1.61891 -1.55145,-3.84491 z"
         style="font-style:normal;font-variant:normal;font-weight:normal;font-stretch:normal;font-size:138.14685059px;line-height:139.99999762%;font-family:Comfortaa;-inkscape-font-specification:'Comfortaa, Normal';text-align:start;writing-mode:lr-tb;text-anchor:start;fill:url(#linearGradient5461);fill-opacity:1;stroke:#433b6c;stroke-width:0.76748246px;stroke-opacity:0.92173911"
         id="path4575"
         inkscape:connector-curvature="0" />
      <path
         d="m 446.35452,657.95887 q 0,-2.22599 1.55146,-3.77745 1.6189,-1.61891 3.8449,-1.61891 2.226,0 3.77746,1.61891 1.6189,1.55146 1.6189,3.77745 v 5.936 q 11.33236,-11.33236 26.98181,-11.33236 7.89218,0 14.50272,2.69818 1.21418,0.47219 2.226,1.41655 1.55146,1.61891 1.55146,3.84491 0,2.226 -1.61891,3.8449 -1.55146,1.55146 -3.77746,1.55146 -1.28163,0 -2.3609,-0.53964 -4.78927,-2.02363 -10.52291,-2.02363 -11.19745,0 -19.08963,7.89217 -7.89218,7.89218 -7.89218,19.08963 v 32.37817 q 0,2.226 -1.6189,3.84491 -1.55146,1.55145 -3.77746,1.55145 -2.226,0 -3.8449,-1.55145 -1.55146,-1.61891 -1.55146,-3.84491 z"
         style="font-style:normal;font-variant:normal;font-weight:normal;font-stretch:normal;font-size:138.14685059px;line-height:139.99999762%;font-family:Comfortaa;-inkscape-font-specification:'Comfortaa, Normal';text-align:start;writing-mode:lr-tb;text-anchor:start;fill:url(#linearGradient5463);fill-opacity:1;stroke:#433b6c;stroke-width:0.76748246px;stroke-opacity:0.92173911"
         id="path4577"
         inkscape:connector-curvature="0" />
      <path
         d="m 521.90358,690.33704 q 0,11.19745 7.89218,19.08963 7.89217,7.89218 19.08962,7.89218 11.19745,0 19.08963,-7.89218 7.89218,-7.89218 7.89218,-19.08963 0,-11.19745 -7.89218,-19.08963 -7.89218,-7.89217 -19.08963,-7.89217 -11.19745,0 -19.08962,7.89217 -7.89218,7.89218 -7.89218,19.08963 z m 0,64.75634 q 0,2.226 -1.61891,3.77745 -1.55146,1.61891 -3.77745,1.61891 -2.226,0 -3.84491,-1.61891 -1.55146,-1.55145 -1.55146,-3.77745 v -64.75634 q 0,-15.64945 11.06254,-26.71199 11.06255,-11.06254 26.71199,-11.06254 15.64945,0 26.71199,11.06254 11.06254,11.06254 11.06254,26.71199 0,15.64945 -11.06254,26.71199 -11.06254,11.06254 -26.71199,11.06254 -15.64944,0 -26.71199,-11.06254 -0.1349,-0.13491 -0.26981,-0.26982 z"
         style="font-style:normal;font-variant:normal;font-weight:normal;font-stretch:normal;font-size:138.14685059px;line-height:139.99999762%;font-family:Comfortaa;-inkscape-font-specification:'Comfortaa, Normal';text-align:start;writing-mode:lr-tb;text-anchor:start;fill:url(#linearGradient5465);fill-opacity:1;stroke:#433b6c;stroke-width:0.76748246px;stroke-opacity:0.92173911"
         id="path4579"
         inkscape:connector-curvature="0" />
    </g>
    <path
       style="fill:#000000;fill-opacity:0;stroke:#b3b3b3;stroke-width:4.06699991;stroke-miterlimit:4;stroke-dasharray:none;stroke-opacity:1"
       d="m 367.19633,632.33933 c 2.01829,-3.88152 3.67647,-7.71308 3.68488,-8.51458 0.008,-0.80149 -4.62762,-6.81816 -10.30223,-13.37037 -30.59759,-35.32971 -54.30257,-83.78519 -65.8696,-134.64447 -6.91167,-30.3901 -8.89317,-50.85689 -8.50571,-87.85504 0.25195,-24.05729 0.86778,-33.48214 2.53356,-38.77311 1.2104,-3.84455 2.24745,-10.78849 2.30457,-15.43096 0.10072,-8.18358 -0.09,-8.62261 -6.25624,-14.40401 l -6.36013,-5.96314 3.44841,-29.41252 3.44839,-29.41249 7.61581,11.38585 c 10.51635,15.72226 24.87215,28.94098 39.08384,35.98818 18.59858,9.22254 25.20997,10.60389 55.67394,11.63226 31.75266,1.07185 47.04269,-0.66136 83.68206,-9.48584 24.98698,-6.01801 36.39711,-7.74312 51.51295,-7.78824 20.84226,-0.0622 32.6866,3.91083 44.24934,14.84297 10.62174,10.04247 15.08827,19.57776 16.75694,35.77332 1.23552,11.99153 1.17262,12.42133 -2.96559,20.2651 -49.05587,92.98288 -71.88178,144.48095 -99.99201,225.59424 -10.3111,29.75313 -11.45969,38.18034 -6.01167,44.1072 l 3.42449,3.72548 -10.18373,-0.10667 -10.18372,-0.10668 -0.85298,-4.82492 c -0.81014,-4.58282 -1.22261,-4.87331 -8.21884,-5.78827 -4.05124,-0.52982 -20.08175,-1.10207 -35.62335,-1.27165 -21.36905,-0.23379 -28.39609,0.12553 -28.82624,1.47152 -0.31283,0.97891 -0.97465,3.54356 -1.47072,5.69919 -0.87108,3.78543 -1.21908,3.91602 -10.18397,3.82214 l -9.28203,-0.0972 3.66958,-7.05734 z m 28.82848,-42.2817 c -1.07513,-5.17744 -32.29867,-118.64013 -57.95027,-210.5846 -1.15428,-4.13731 -2.65192,-7.52818 -3.32812,-7.53526 -0.6762,-0.007 -1.23162,0.19664 -1.23431,0.4527 -0.002,0.25608 -0.99432,7.15679 -2.20363,15.33491 -10.49454,70.97033 1.4797,134.52924 35.22548,186.97572 4.48259,6.9667 12.22324,16.88815 17.20147,22.0477 l 9.05129,9.38102 2.32168,-4.6526 c 1.88057,-3.76868 2.05468,-5.93826 0.91641,-11.41959 z m 9.56981,-12.46635 c 2.44315,-5.13665 4.46032,-11.07925 4.48259,-13.20575 0.0226,-2.12649 -8.95562,-36.40967 -19.95088,-76.18485 -10.99525,-39.77518 -24.06072,-87.14764 -29.03434,-105.27215 -5.20139,-18.95447 -10.00388,-33.72234 -11.30491,-34.76315 -1.24407,-0.99522 -4.04277,-1.82813 -6.21933,-1.85094 -3.43263,-0.036 -4.17751,0.74319 -5.61734,5.87559 -1.95404,6.96542 -2.18403,5.85488 10.90949,52.67531 5.19131,18.56321 16.96374,60.83157 26.16102,93.92969 18.38574,66.16465 24.76037,88.12127 25.58661,88.12992 0.29972,0.003 2.54391,-4.19703 4.98709,-9.33367 z m 14.68152,-29.09723 c 2.38797,-4.60989 4.35766,-9.90007 4.3771,-11.75596 0.0192,-1.85591 -3.11723,-14.60421 -6.97035,-28.32957 -3.85313,-13.72538 -7.83056,-28.17833 -8.83874,-32.11767 -1.00816,-3.93936 -5.95999,-21.99219 -11.00406,-40.11744 -5.0441,-18.12524 -12.28515,-44.23821 -16.09124,-58.02882 -3.80609,-13.79063 -7.64484,-25.8098 -8.53055,-26.7093 -2.54147,-2.58103 -15.22713,-3.60496 -16.1384,-1.30261 -0.41651,1.05238 4.82155,22.08844 11.64017,46.74682 6.81864,24.65837 18.9045,68.36711 26.85748,97.13053 7.953,28.76344 15.15551,55.05613 16.00559,58.4282 0.8501,3.3721 2.1769,5.75 2.94843,5.28426 0.77156,-0.46577 3.35662,-4.61855 5.74457,-9.22844 z m 14.98904,-28.02119 5.18163,-9.61477 -13.76255,-49.40689 c -7.56942,-27.17379 -14.95639,-53.91964 -16.4155,-59.43522 -1.45912,-5.51557 -5.29333,-19.37793 -8.52051,-30.8052 l -5.86757,-20.77686 -7.50722,-0.51099 c -5.99822,-0.40829 -7.69906,-0.0263 -8.46161,1.90031 -0.52491,1.32623 1.37665,10.86267 4.22571,21.19206 2.84907,10.3294 13.24045,47.79529 23.09193,83.25753 9.85151,35.46227 18.49085,66.5723 19.19854,69.13342 0.70771,2.56112 1.81972,4.66217 2.47113,4.66899 0.65143,0.006 3.51613,-4.31425 6.36602,-9.60238 z m 19.9124,-33.64703 c 0.0212,-1.97558 -9.29082,-36.18264 -30.95292,-113.70974 -4.03641,-14.44609 -7.71193,-26.64646 -8.16776,-27.11195 -0.45585,-0.4655 -3.88787,-0.28857 -7.62675,0.39318 -5.20429,0.94894 -6.90248,1.91879 -7.24387,4.13699 -0.41799,2.71571 37.87253,144.8149 41.08819,152.4817 1.44569,3.44679 1.61924,3.32043 7.18077,-5.22774 3.13459,-4.81795 5.70966,-9.75104 5.72234,-10.96244 z m 9.58392,-12.44953 c 2.29996,-3.31539 4.67518,-7.20103 5.27822,-8.63478 0.70923,-1.6862 -4.54725,-22.93131 -14.88463,-60.15916 -8.78959,-31.65381 -16.56176,-59.64785 -17.27146,-62.20899 -0.70972,-2.56114 -2.21141,-4.66628 -3.3371,-4.67806 -4.03873,-0.0423 -13.58097,4.4944 -13.60164,6.46667 -0.0219,2.0483 35.59136,132.16962 36.71273,134.14019 1.24563,2.18893 3.02327,0.95628 7.10388,-4.92587 z m 16.43829,-22.47406 c 2.36805,-3.19795 4.66602,-6.91033 5.10661,-8.24973 0.44062,-1.33938 -4.18183,-20.44861 -10.27209,-42.46494 -16.8942,-61.07268 -19.48337,-69.40507 -21.57358,-69.42696 -1.03794,-0.0111 -4.51529,1 -7.72744,2.24639 -7.11921,2.76242 -7.83369,-2.35147 7.57013,54.18363 14.39797,52.84339 19.48519,69.49356 21.23836,69.51192 0.74388,0.007 3.28997,-2.60235 5.65801,-5.80031 z m 17.07432,-21.81595 c 2.58979,-3.44511 4.71955,-7.29804 4.73278,-8.56207 0.0259,-2.51326 -24.55403,-92.10392 -25.97487,-94.67346 -1.24157,-2.24533 -15.91255,1.85061 -15.93976,4.45017 -0.0244,2.33887 25.48375,95.49501 27.7059,101.18192 2.10815,5.39524 3.97321,4.92356 9.47595,-2.39656 z m 15.36219,-18.65036 c 2.97996,-3.74338 5.27007,-8.20982 5.28246,-10.3024 0.0127,-2.03174 -2.78988,-13.68838 -6.22645,-25.9036 -3.43658,-12.21522 -7.17582,-25.75512 -8.30942,-30.08866 -1.13362,-4.33354 -3.02715,-11.34581 -4.2079,-15.58283 l -2.14678,-7.70366 -7.24526,0.78126 c -3.98491,0.42968 -7.82739,1.35128 -8.53885,2.04801 -0.76248,0.74668 3.83177,19.84006 11.18994,46.50451 6.86594,24.88075 12.47978,45.59593 12.4752,46.03374 -0.0248,2.38017 3.07237,0.0606 7.72706,-5.78637 z m 23.35738,-28.52434 c -0.36876,-1.02633 -4.095,-14.24465 -8.28054,-29.37404 -4.18554,-15.12938 -8.21325,-28.96079 -8.95046,-30.73645 -1.41527,-3.4089 -4.50493,-3.9966 -12.78153,-2.43123 -5.64761,1.06813 -5.78354,-0.0505 4.41237,36.32207 4.07939,14.5528 8.48086,30.32813 9.78103,35.05629 l 2.36396,8.59666 7.06283,-7.78362 c 3.88456,-4.28099 6.7611,-8.62333 6.39234,-9.64968 z m 20.96188,-20.85665 c 5.20095,-10.46292 3.33217,-24.62116 -4.18218,-31.68464 -6.83624,-6.42612 -29.66763,-13.672 -29.71204,-9.42958 -0.0197,1.90999 15.12276,57.5606 16.15144,59.35752 1.11726,1.95171 14.59033,-11.90144 17.74278,-18.2433 z"
       id="path4628"
       inkscape:connector-curvature="0" />
  </g>
</svg>
